<?xml version="1.0" encoding="utf-8"?>
<!-- Generator: Adobe Illustrator 21.0.2, SVG Export Plug-In . SVG Version: 6.00 Build 0)  -->
<svg version="1.1" id="Layer_1" xmlns="http://www.w3.org/2000/svg" xmlns:xlink="http://www.w3.org/1999/xlink" x="0px" y="0px"
	 viewBox="0 0 16 16" style="enable-background:new 0 0 16 16;" xml:space="preserve">
<style type="text/css">
	.st0{fill:#231F20;}
</style>
<path class="st0" d="M12.4,0.8H3.6C2.1,0.8,0.8,2,0.8,3.6v2.9v5.9c0,1.5,1.2,2.8,2.8,2.8h8.8c1.5,0,2.8-1.2,2.8-2.8V6.5V3.6
	C15.2,2.1,14,0.8,12.4,0.8z M13.2,2.5h0.3v0.3v2.1h-2.4V2.5H13.2z M6,6.5c0.5-0.6,1.2-1.1,2-1.1s1.6,0.4,2,1.1
	c0.3,0.4,0.5,0.9,0.5,1.5c0,1.4-1.1,2.5-2.5,2.5S5.5,9.4,5.5,8C5.5,7.4,5.7,6.9,6,6.5z M13.8,12.4c0,0.8-0.6,1.4-1.4,1.4H3.6
	c-0.8,0-1.4-0.6-1.4-1.4V6.5h2.1C4.1,7,4,7.5,4,8c0,2.2,1.8,3.9,3.9,3.9c2.2,0,3.9-1.8,3.9-3.9c0-0.5-0.1-1-0.3-1.5h2.1v5.9H13.8z"
	/>
</svg>
