<?xml version="1.0" encoding="utf-8"?>
<!-- Generator: Adobe Illustrator 21.0.2, SVG Export Plug-In . SVG Version: 6.00 Build 0)  -->
<svg version="1.1" id="Layer_1" xmlns="http://www.w3.org/2000/svg" xmlns:xlink="http://www.w3.org/1999/xlink" x="0px" y="0px"
	 viewBox="0 0 16 16" style="enable-background:new 0 0 16 16;" xml:space="preserve">
<style type="text/css">
	.st0{fill:#231F20;}
</style>
<g>
	<path class="st0" d="M12.5,7.7h-9c-1.4,0-2.6,1.2-2.6,2.6v2.1c0,1.4,1.2,2.6,2.6,2.6h9c1.4,0,2.6-1.2,2.6-2.6v-2.1
		C15.1,8.9,14,7.7,12.5,7.7z M5.4,9.3H4.6v4.2H3.8V9.3H3V8.6h2.5L5.4,9.3L5.4,9.3z M7.8,13.5H7.1v-0.4c-0.1,0.1-0.3,0.3-0.4,0.3
		c-0.1,0.1-0.3,0.1-0.4,0.1c-0.2,0-0.3-0.1-0.4-0.2c-0.1-0.1-0.1-0.3-0.1-0.5v-3h0.7v2.8c0,0.1,0,0.1,0,0.2l0.1,0.1
		c0.1,0,0.1,0,0.2-0.1C6.9,12.6,7,12.6,7,12.5V9.8h0.7L7.8,13.5L7.8,13.5z M10.4,12.7c0,0.3-0.1,0.4-0.2,0.6
		c-0.1,0.1-0.3,0.2-0.5,0.2c-0.1,0-0.3,0-0.4-0.1c-0.1-0.1-0.2-0.1-0.3-0.2v0.3H8.3V8.6H9v1.6C9.1,10.1,9.2,10,9.3,10
		c0.1-0.1,0.2-0.1,0.3-0.1c0.2,0,0.4,0.1,0.5,0.2c0.1,0.2,0.2,0.4,0.2,0.7L10.4,12.7L10.4,12.7z M12.9,11.8h-1.4v0.7
		c0,0.2,0,0.3,0.1,0.4c0,0.1,0.1,0.1,0.2,0.1c0.1,0,0.2,0,0.2-0.1s0.1-0.2,0.1-0.4v-0.2h0.7v0.2c0,0.4-0.1,0.6-0.3,0.8
		s-0.4,0.3-0.8,0.3c-0.3,0-0.6-0.1-0.8-0.3s-0.3-0.5-0.3-0.8v-1.6c0-0.3,0.1-0.6,0.3-0.8s0.5-0.3,0.8-0.3s0.6,0.1,0.8,0.3
		s0.3,0.4,0.3,0.8L12.9,11.8L12.9,11.8z"/>
	<path class="st0" d="M11.8,10.4c-0.1,0-0.2,0-0.2,0.1c-0.1,0.1-0.1,0.2-0.1,0.3v0.4h0.6v-0.4c0-0.2,0-0.3-0.1-0.3
		C12,10.5,11.9,10.4,11.8,10.4z"/>
	<path class="st0" d="M9.4,10.4c-0.1,0-0.1,0-0.2,0l-0.1,0.1v2.2c0.1,0.1,0.1,0.1,0.2,0.1c0.1,0,0.1,0,0.2,0c0.1,0,0.2,0,0.2-0.1
		s0.1-0.1,0.1-0.2v-1.9c0-0.1,0-0.2-0.1-0.3C9.5,10.4,9.5,10.4,9.4,10.4z"/>
	<polygon class="st0" points="4.7,6.5 5.6,6.5 5.6,4.2 6.7,1.1 5.8,1.1 5.2,3.2 5.1,3.2 4.6,1.1 3.6,1.1 4.7,4.3 	"/>
	<path class="st0" d="M7.9,6.6c0.4,0,0.7-0.1,0.9-0.3s0.3-0.5,0.3-0.8v-2C9.1,3.2,9,3,8.8,2.8S8.3,2.5,8,2.5c-0.4,0-0.7,0.1-0.9,0.3
		C6.9,3,6.8,3.2,6.8,3.5v2c0,0.3,0.1,0.6,0.3,0.8C7.3,6.5,7.6,6.6,7.9,6.6z M7.6,3.4c0-0.1,0-0.2,0.1-0.2c0.1-0.1,0.1-0.1,0.2-0.1
		c0.1,0,0.2,0,0.3,0.1c0.1,0.1,0.1,0.1,0.1,0.2v2.2c0,0.1,0,0.2-0.1,0.2C8.1,5.9,8,5.9,7.9,5.9s-0.2,0-0.2-0.1
		C7.6,5.7,7.6,5.7,7.6,5.5V3.4z"/>
	<path class="st0" d="M10.3,6.5c0.2,0,0.3,0,0.5-0.1s0.3-0.2,0.5-0.4v0.4h0.8v-4h-0.8v3c-0.1,0.1-0.2,0.2-0.2,0.2
		c-0.1,0.1-0.2,0.1-0.2,0.1c-0.1,0-0.1,0-0.2-0.1c0,0-0.1-0.1-0.1-0.2v-3H9.8v3.3c0,0.2,0,0.4,0.1,0.5C10,6.5,10.1,6.5,10.3,6.5z"/>
</g>
</svg>
