<?xml version="1.0" encoding="utf-8"?>
<!-- Generator: Adobe Illustrator 21.0.2, SVG Export Plug-In . SVG Version: 6.00 Build 0)  -->
<svg version="1.1" id="Layer_1" xmlns="http://www.w3.org/2000/svg" xmlns:xlink="http://www.w3.org/1999/xlink" x="0px" y="0px"
	 viewBox="0 0 16 16" style="enable-background:new 0 0 16 16;" xml:space="preserve">
<style type="text/css">
	.st0{fill:#231F20;}
</style>
<path class="st0" d="M15,6.6c-0.1-0.5-0.2-0.9-0.4-1.3s-0.4-0.8-0.7-1.2C13.6,3.7,13.4,3.4,13,3c-0.3-0.3-0.7-0.6-1.1-0.9
	s-0.8-0.5-1.2-0.7C10.3,1.2,9.8,1.1,9.4,1C8.9,0.9,8.5,0.9,8,0.9S7,0.9,6.6,1C6.1,1.1,5.7,1.2,5.3,1.4S4.5,1.8,4.1,2.1
	C3.7,2.4,3.4,2.6,3,3C2.7,3.3,2.4,3.7,2.1,4.1S1.6,4.9,1.4,5.3C1.2,5.7,1.1,6.2,1,6.6C0.9,7.1,0.9,7.6,0.9,8c0,0.5,0,1,0.1,1.4
	c0.1,0.5,0.2,0.9,0.4,1.3c0.2,0.4,0.4,0.8,0.7,1.2C2.4,12.3,2.6,12.6,3,13c0.3,0.3,0.7,0.6,1.1,0.9c0.4,0.3,0.8,0.5,1.2,0.7
	c0.4,0.2,0.9,0.3,1.3,0.4c0.5,0.1,1,0.1,1.4,0.1c0.5,0,1,0,1.4-0.1c0.5-0.1,0.9-0.2,1.3-0.4s0.8-0.4,1.2-0.7
	c0.4-0.3,0.7-0.5,1.1-0.9c0.3-0.3,0.6-0.7,0.9-1.1c0.3-0.4,0.5-0.8,0.7-1.2s0.3-0.9,0.4-1.3c0.1-0.5,0.1-1,0.1-1.4S15.1,7.1,15,6.6z
	 M14.1,8C14,8,11.9,7.5,9.9,7.8c0-0.1-0.1-0.2-0.1-0.3C9.7,7.2,9.5,6.9,9.4,6.6c2.4-1,3.4-2.4,3.4-2.4C13.5,5.2,14.1,6.5,14.1,8z
	 M12,3.5c0,0-0.9,1.3-3.2,2.2c-1-1.9-2.2-3.4-2.3-3.6C7,2,7.4,1.9,7.9,1.9C9.5,1.9,10.9,2.5,12,3.5z M6.5,2.1L6.5,2.1L6.5,2.1
	L6.5,2.1z M5.4,2.5C5.5,2.6,6.6,4.1,7.7,6C4.8,6.8,2.2,6.7,2.1,6.7C2.4,4.9,3.7,3.3,5.4,2.5z M1.9,8c0-0.1,0-0.1,0-0.2
	C2,7.8,5,7.9,8.2,6.9c0.2,0.3,0.3,0.7,0.5,1c-0.1,0-0.2,0-0.2,0.1c-3.3,1.1-5,4-5,4l0,0C2.5,11,1.9,9.6,1.9,8z M8,14.1
	c-1.5,0-2.8-0.5-3.9-1.4c0.1,0.1,0.1,0.1,0.1,0.1S5.4,10.2,9,9l0,0c0.9,2.2,1.2,4.1,1.3,4.6C9.6,14,8.8,14.1,8,14.1z M11.4,13.1
	c-0.1-0.4-0.4-2.2-1.2-4.4c2-0.3,3.7,0.2,3.8,0.3C13.7,10.7,12.7,12.2,11.4,13.1z"/>
</svg>
