<?xml version="1.0" encoding="utf-8"?>
<!-- Generator: Adobe Illustrator 21.0.2, SVG Export Plug-In . SVG Version: 6.00 Build 0)  -->
<svg version="1.1" id="Layer_1" xmlns="http://www.w3.org/2000/svg" xmlns:xlink="http://www.w3.org/1999/xlink" x="0px" y="0px"
	 viewBox="0 0 16 16" style="enable-background:new 0 0 16 16;" xml:space="preserve">
<style type="text/css">
	.st0{fill:#231F20;}
</style>
<path class="st0" d="M15.1,3.6C14.6,3.8,14,4,13.4,4.1c0.6-0.4,1.1-1,1.3-1.7c-0.6,0.3-1.2,0.6-1.9,0.7c-0.5-0.6-1.3-0.9-2.1-0.9
	c-1.6,0-2.9,1.3-2.9,2.9c0,0.2,0,0.5,0.1,0.7c-2.4-0.1-4.6-1.3-6-3.1c-0.3,0.5-0.4,1-0.4,1.5c0,1,0.5,1.9,1.3,2.4
	c-0.5,0-0.9-0.1-1.3-0.4l0,0c0,1.4,1,2.6,2.3,2.9C3.5,9.2,3.3,9.3,3,9.3c-0.2,0-0.4,0-0.5-0.1c0.4,1.2,1.5,2,2.7,2
	c-1,0.8-2.3,1.3-3.6,1.3c-0.2,0-0.5,0-0.7,0c1.3,0.8,2.8,1.3,4.5,1.3c5.4,0,8.3-4.5,8.3-8.3c0-0.1,0-0.3,0-0.4
	C14.2,4.7,14.7,4.2,15.1,3.6z"/>
</svg>
