<?xml version="1.0" encoding="utf-8"?>
<!-- Generator: Adobe Illustrator 21.0.2, SVG Export Plug-In . SVG Version: 6.00 Build 0)  -->
<svg version="1.1" id="Layer_1" xmlns="http://www.w3.org/2000/svg" xmlns:xlink="http://www.w3.org/1999/xlink" x="0px" y="0px"
	 viewBox="0 0 16 16" style="enable-background:new 0 0 16 16;" xml:space="preserve">
<style type="text/css">
	.st0{fill:#231F20;}
</style>
<g>
	<path class="st0" d="M15,8L15,8C15.1,8,15.1,7.9,15,8C15.1,7.9,15.1,7.9,15,8c-0.6-0.2-1.1-0.4-2.8-0.3c0.1-0.4,0.2-0.8,0.2-1.4
		c0-1.4-0.7-2-0.8-2.2c0.2-1.1,0-1.6-0.1-1.8C11.1,2.2,10.1,2.7,9.6,3C8.7,2.7,6.9,2.8,6.2,3.1C4.9,2.2,4.3,2.3,4.3,2.3
		S3.9,3.1,4.2,4.2C3.8,4.7,3.5,5.1,3.5,6.1c0,0.6,0.1,1.1,0.2,1.5C3,7.6,1.7,7.7,1,7.8c0,0,0,0,0,0.1l0,0l0,0
		c0.7-0.2,2.1-0.3,2.7-0.2c0,0.1,0.1,0.2,0.1,0.3c-1.6,0-2,0.3-2.7,0.4H1c0,0,0,0,0,0.1l0,0l0,0h0.1c0.7-0.2,1.1-0.4,2.7-0.4
		C4.3,9,5.2,9.5,6.7,9.6c-0.2,0.2-0.5,0.5-0.5,0.9c-0.3,0.2-0.8,0.2-1.3,0.1c-0.6-0.2-0.8-1.4-1.7-1.2C3,9.4,3,9.6,3.2,9.7
		c0.3,0.2,0.5,0.4,0.7,0.9c0.2,0.4,0.5,1,1.5,1c0.4,0,0.7,0,0.7,0s0,0.9,0,1.3c0,0.4-0.6,0.5-0.6,0.7c0,0.1,0.2,0.1,0.3,0.1
		c0.3,0,0.9-0.2,0.9-0.7c0-0.3,0-1.5,0-1.7c0-0.4,0.2-0.6,0.2-0.6s0,2.4-0.1,2.7c-0.1,0.4-0.3,0.3-0.3,0.5s0.7,0.1,1-0.5
		c0.2-0.4,0.1-2.8,0.1-2.8h0.2c0,0,0,1.1,0,1.6c0,0.5,0,1.1,0.3,1.4c0.2,0.2,0.8,0.5,0.8,0.2c0-0.2-0.4-0.3-0.4-0.8s0-2.2,0-2.3
		c0.3,0,0.2,0.8,0.2,0.8v1.4c0,0-0.1,0.5,0.6,0.7c0.2,0.1,0.7,0.1,0.7,0s-0.6-0.3-0.6-0.7c0-0.2,0-0.4,0-1.4c0-1.1-0.1-1.4-0.6-1.8
		c1.5-0.2,2.5-0.5,2.9-1.5c0.5,0,1.6,0.1,2.9,0.5l0,0l0,0V8.6c-1.3-0.4-2.3-0.4-2.9-0.5c0-0.1,0.1-0.2,0.1-0.3
		C13.9,7.7,14.4,7.8,15,8z M3.5,9.6C3.4,9.6,3.4,9.6,3.5,9.6c-0.1-0.2-0.1-0.2,0-0.2S3.6,9.4,3.5,9.6C3.6,9.6,3.6,9.6,3.5,9.6z
		 M3.8,9.7C3.8,9.7,3.8,9.6,3.8,9.7C4,9.6,4,9.6,4,9.7C4,9.7,4,9.8,3.8,9.7C3.8,9.8,3.8,9.7,3.8,9.7z M4,9.9C4,9.9,4,9.8,4,9.9
		c0.2-0.1,0.2-0.1,0.2,0C4.2,9.9,4.2,10,4,9.9C4,10,4,10,4,9.9z M4.3,10.3C4.2,10.3,4.2,10.3,4.3,10.3c-0.1-0.1-0.1-0.2,0-0.2
		S4.4,10.1,4.3,10.3C4.4,10.3,4.3,10.3,4.3,10.3z M4.5,10.5C4.4,10.5,4.4,10.5,4.5,10.5c-0.1-0.1-0.1-0.2,0-0.2S4.6,10.3,4.5,10.5
		C4.6,10.5,4.5,10.5,4.5,10.5z M4.7,10.8C4.6,10.8,4.6,10.8,4.7,10.8c-0.1-0.1-0.1-0.2,0-0.2S4.8,10.6,4.7,10.8
		C4.9,10.7,4.8,10.8,4.7,10.8z M5.1,10.9C5,10.9,5,10.9,5.1,10.9c-0.1-0.1-0.1-0.2,0-0.2S5.2,10.7,5.1,10.9
		C5.3,10.9,5.2,10.9,5.1,10.9z M5.5,10.9C5.4,10.9,5.4,10.9,5.5,10.9c-0.1-0.1-0.1-0.2,0-0.2S5.6,10.7,5.5,10.9
		C5.6,10.9,5.6,10.9,5.5,10.9z M5.9,10.9C5.8,10.9,5.8,10.9,5.9,10.9c-0.1-0.1-0.1-0.2,0-0.2S6,10.7,5.9,10.9
		C6,10.8,6,10.9,5.9,10.9z M9.1,9.3c-0.3,0-0.7,0-1,0s-0.7,0-1,0c-1.7-0.1-2.6-0.8-2.6-2c0-0.1,0-0.6,0.4-1c0.3-0.4,0.9-0.6,1.5-0.6
		c0,0,0.1,0,0.3,0c0.3,0,0.9,0.1,1.5,0.1c0.5,0,1,0,1.3-0.1c0.1,0,0.2,0,0.2,0c1.4,0,1.8,0.9,1.8,1.7C11.4,8.2,11,9.2,9.1,9.3z"/>
	<path class="st0" d="M3.2,10.4c0.3,0,0-0.4,0-0.6C3.2,9.9,2.9,10.4,3.2,10.4z"/>
	<path class="st0" d="M8.3,8.6L8.3,8.6c0,0.2-0.2,0.3-0.3,0.3c0,0,0,0-0.1,0s-0.1,0-0.1-0.1l0,0c0,0,0,0-0.1-0.1V8.6l0,0l0,0l0,0
		v0.1c0,0,0,0.1,0.1,0.1c0,0,0.1,0,0.1,0.1c0,0,0.1,0,0.2,0c0,0,0,0,0.1,0s0.2,0,0.3-0.1l0,0l0,0C8.3,8.8,8.3,8.7,8.3,8.6
		C8.4,8.7,8.4,8.7,8.3,8.6C8.4,8.6,8.3,8.6,8.3,8.6z"/>
	<path class="st0" d="M7.8,8.3C7.8,8.4,7.8,8.4,7.8,8.3C7.9,8.4,7.9,8.4,7.8,8.3C7.9,8.4,7.9,8.4,7.8,8.3L7.8,8.3L8,8.4l0,0l0,0
		c0,0,0,0,0-0.1S7.9,8.1,7.8,8.1H7.7l0,0l0,0c0,0,0,0,0,0.1C7.8,8.2,7.8,8.2,7.8,8.3L7.8,8.3L7.8,8.3z"/>
	<path class="st0" d="M6.6,6.6L6.6,6.6L6.4,6.4H6.3c0,0,0,0-0.1,0c-0.4,0-0.7,0.5-0.7,1c0,0.6,0.3,1,0.7,1c0,0,0,0,0.1,0h0.1
		c0,0,0.1,0,0.1-0.1l0.1-0.1l0.1-0.1c0.1-0.2,0.2-0.4,0.2-0.6c0-0.3-0.1-0.5-0.2-0.7C6.6,6.7,6.6,6.6,6.6,6.6z"/>
	<path class="st0" d="M9.9,6.3c-0.4,0-0.7,0.5-0.7,1c0,0.6,0.3,1,0.7,1s0.7-0.4,0.7-1C10.6,6.8,10.3,6.3,9.9,6.3z"/>
</g>
</svg>
