<?xml version="1.0" encoding="utf-8"?>
<!-- Generator: Adobe Illustrator 21.0.2, SVG Export Plug-In . SVG Version: 6.00 Build 0)  -->
<svg version="1.1" id="Layer_1" xmlns="http://www.w3.org/2000/svg" xmlns:xlink="http://www.w3.org/1999/xlink" x="0px" y="0px"
	 viewBox="0 0 90 90" style="enable-background:new 0 0 90 90;" xml:space="preserve">
<style type="text/css">
	.st0{fill:#EE6E73;}
	.st1{fill:none;stroke:#231F20;stroke-width:0.75;stroke-miterlimit:10;}
	.st2{fill:none;stroke:#AF4F55;stroke-width:0.75;stroke-miterlimit:10;}
	.st3{fill:none;stroke:#914A50;stroke-width:0.75;stroke-miterlimit:10;}
	.st4{fill:none;stroke:#231F20;stroke-miterlimit:10;}
	.st5{fill:none;stroke:#EE6E73;stroke-miterlimit:10;}
	.st6{fill:none;stroke:#00AEEF;stroke-linecap:round;stroke-linejoin:round;stroke-miterlimit:10;}
	.st7{fill:none;stroke:#231F20;stroke-linejoin:round;stroke-miterlimit:10;}
	.st8{fill:#FFFFFF;}
</style>
<g>
	<g>
		<path class="st0" d="M58.6,75.6c0,1.6-2.3,2.9-5.1,2.9h-7.9c-2.8,0-5.1-1.3-5.1-2.9V61.2c0-1.6,2.3-2.9,5.1-2.9h7.9
			c2.8,0,5.1,1.3,5.1,2.9V75.6z"/>
		<path class="st4" d="M30.5,34.5c0.1,0.8-0.8,1.4-1.5,1l-3-1.4c-2.9,1.2-6.2,1.1-9.1-0.6c-4.9-2.9-6.6-9.2-3.8-14.1
			c2.9-4.9,9.2-6.6,14.1-3.8s6.6,9.2,3.8,14.1c-0.2,0.4-0.5,0.8-0.8,1.2L30.5,34.5z"/>
		<rect x="48.6" y="65.2" class="st5" width="2.6" height="12.6"/>
		<circle class="st4" cx="28.8" cy="48.3" r="2"/>
		<g>
			<line class="st4" x1="73.4" y1="51.3" x2="73.4" y2="58.1"/>
			<line class="st4" x1="70" y1="54.7" x2="76.8" y2="54.7"/>
		</g>
		<g>
			<line class="st4" x1="73.6" y1="22.7" x2="73.6" y2="29.4"/>
			<line class="st4" x1="70.2" y1="26" x2="77" y2="26"/>
		</g>
		<path class="st4" d="M40.3,20.3l-5.3,17.5c-0.5,1.8,0.8,3.6,2.7,3.6h1.8v13.8H60c0,0,5.2-4.3,4.7-14.4v-5.8"/>
		<line class="st4" x1="39" y1="46.2" x2="44" y2="46.2"/>
		<path class="st4" d="M65.1,33.6c2,0,3.4,2,3.4,4.4s-1.6,4.4-3.7,4.4"/>
		<path class="st4" d="M52.8,32.6c-2.4-2.4-6.2-2.4-8.6,0"/>
		<polygon class="st4" points="49.4,62.8 45.9,70.3 37.3,61 37.3,57 		"/>
		<polygon class="st4" points="50.3,62.8 53.8,70.3 62.4,61 62.4,57 		"/>
		<line class="st4" x1="43.2" y1="55.4" x2="43.2" y2="59.5"/>
		<line class="st4" x1="58.6" y1="55.3" x2="58.6" y2="59"/>
		<line class="st4" x1="36.8" y1="56.2" x2="39.5" y2="52.4"/>
		<line class="st4" x1="61.2" y1="53.7" x2="62.8" y2="56.3"/>
		<path class="st5" d="M40.8,21.4c0,0,1.5,2.8,6.1,2.6c4.6-0.3,5.9-3.7,9.5-0.1s4.1,11.3,4.1,11.3h4.5l0.9-4.6
			c0.7-3.7,0.8-7.5,0.1-11.1c-0.9-5-6.3-11.1-12.3-11.7C40.4,6.2,32.3,10.5,40.8,21.4z"/>
		<line class="st4" x1="45.5" y1="34.9" x2="49.1" y2="34.9"/>
		<path class="st4" d="M62.2,61.2h8.5c4,0,7.4,3.2,7.5,7.3c0,0.1,0,0.1,0,0.2v9.1"/>
		<path class="st4" d="M37.4,61.6h-8.5c-4,0-7.4,2.9-7.5,6.5c0,0.1,0,0.1,0,0.2v9.5"/>
		<path class="st4" d="M15.9,20.3c-0.3,0.3-0.4,0.8-0.3,1.2c0.2,1,0.9,2.7,2.4,4.1c2.3,2.1,5,4.7,7.6,4.5l1.6-1.8
			c0,0,0.4-0.8-0.2-1.1c-0.5-0.3-1.7-1.1-2.2-1.3c-0.2-0.1-0.4-0.2-0.7-0.2c-0.1,0-0.3,0-0.4,0.1c-0.3,0.2-1.1,0.8-1.1,0.8l-3.4-3.1
			l0.4-0.9c0.2-0.4,0.2-0.7,0.2-1.1l0,0c0,0-1.3-2.2-1.8-2.4C17.6,18.9,15.9,20.3,15.9,20.3z"/>
		<rect x="61" y="71.6" class="st4" width="11" height="5.4"/>
		<line class="st4" x1="62" y1="74" x2="63.4" y2="74"/>
		<line class="st4" x1="68.8" y1="74" x2="70.2" y2="74"/>
		<line class="st4" x1="64" y1="74" x2="67.4" y2="74"/>
	</g>
</g>
</svg>
