<?xml version="1.0" encoding="utf-8"?>
<!-- Generator: Adobe Illustrator 21.0.2, SVG Export Plug-In . SVG Version: 6.00 Build 0)  -->
<svg version="1.1" id="Layer_1" xmlns="http://www.w3.org/2000/svg" xmlns:xlink="http://www.w3.org/1999/xlink" x="0px" y="0px"
	 viewBox="0 0 90 90" style="enable-background:new 0 0 90 90;" xml:space="preserve">
<style type="text/css">
	.st0{fill:#EE6E73;}
	.st1{fill:none;stroke:#231F20;stroke-width:0.75;stroke-miterlimit:10;}
	.st2{fill:none;stroke:#AF4F55;stroke-width:0.75;stroke-miterlimit:10;}
	.st3{fill:none;stroke:#914A50;stroke-width:0.75;stroke-miterlimit:10;}
	.st4{fill:none;stroke:#231F20;stroke-miterlimit:10;}
	.st5{fill:none;stroke:#EE6E73;stroke-miterlimit:10;}
	.st6{fill:none;stroke:#00AEEF;stroke-linecap:round;stroke-linejoin:round;stroke-miterlimit:10;}
	.st7{fill:none;stroke:#231F20;stroke-linejoin:round;stroke-miterlimit:10;}
	.st8{fill:#FFFFFF;}
</style>
<g>
	<g>
		<path class="st0" d="M58.3,30.7c0,6-5.2,10.9-11.5,10.9h-2.1c-6.4,0-11.5-4.9-11.5-10.9v-2.9c0-6,5.2-10.9,11.5-10.9h2.1
			c6.4,0,11.5,4.9,11.5,10.9V30.7z"/>
		<circle class="st4" cx="70.9" cy="53" r="2.3"/>
		<g>
			<line class="st4" x1="19.8" y1="12.5" x2="19.8" y2="20.1"/>
			<line class="st4" x1="16" y1="16.3" x2="23.6" y2="16.3"/>
		</g>
		<circle class="st4" cx="45.7" cy="29.2" r="12.5"/>
		<path class="st4" d="M41.9,7.7c-0.5,0.1-0.8,0.5-0.7,1c0.1,1.2-0.7,2.4-1.9,2.9c-1.2,0.4-2.6,0-3.3-1c-0.3-0.4-0.8-0.5-1.2-0.3
			l0,0c-0.4,0.2-0.6,0.7-0.4,1.2c0.5,1.1,0.2,2.5-0.8,3.4c-1,0.8-2.4,0.9-3.4,0.2c-0.4-0.3-0.9-0.2-1.2,0.2l0,0
			c-0.3,0.4-0.3,0.9,0,1.2c0.9,0.9,1.1,2.3,0.4,3.4c-0.7,1.1-2,1.7-3.2,1.4c-0.4-0.1-0.9,0.1-1.1,0.6l0,0c-0.2,0.4,0,0.9,0.5,1.1
			c1.1,0.5,1.8,1.8,1.6,3.1c-0.2,1.3-1.3,2.2-2.5,2.4c-0.5,0-0.8,0.4-0.8,0.9v0c0,0.5,0.3,0.8,0.8,0.9c1.2,0.1,2.3,1.1,2.5,2.4
			c0.2,1.3-0.4,2.5-1.6,3.1c-0.4,0.2-0.6,0.7-0.5,1.1l0,0c0.2,0.4,0.6,0.7,1.1,0.6c1.2-0.3,2.5,0.2,3.2,1.4s0.4,2.5-0.4,3.4
			c-0.3,0.3-0.3,0.9,0,1.2l0,0c0.3,0.4,0.8,0.4,1.2,0.2c1-0.7,2.4-0.7,3.4,0.2c1,0.8,1.3,2.2,0.8,3.4c-0.2,0.4,0,0.9,0.4,1.2l0,0
			c0.4,0.2,0.9,0.1,1.2-0.3c0.7-1,2.1-1.4,3.3-1c1.2,0.4,2,1.6,1.9,2.9c0,0.5,0.3,0.9,0.7,1l0,0c0.5,0.1,0.9-0.2,1-0.6
			c0.3-1.2,1.4-2.1,2.8-2.1c1.3,0,2.4,0.9,2.8,2.1c0.1,0.4,0.6,0.7,1,0.6l0,0c0.5-0.1,0.8-0.5,0.7-1c-0.1-1.2,0.7-2.4,1.9-2.9
			c1.2-0.4,2.6,0,3.3,1c0.3,0.4,0.8,0.5,1.2,0.3l0,0c0.4-0.2,0.6-0.7,0.4-1.2c-0.5-1.1-0.2-2.5,0.8-3.4c1-0.8,2.4-0.9,3.4-0.2
			c0.4,0.3,0.9,0.2,1.2-0.2l0,0c0.3-0.4,0.3-0.9,0-1.2c-0.9-0.9-1.1-2.3-0.4-3.4c0.7-1.1,2-1.6,3.2-1.4c0.4,0.1,0.9-0.1,1.1-0.6l0,0
			c0.2-0.4,0-0.9-0.5-1.1c-1.1-0.5-1.8-1.8-1.6-3.1c0.2-1.3,1.3-2.2,2.5-2.4c0.5,0,0.8-0.4,0.8-0.9v0c0-0.5-0.3-0.8-0.8-0.9
			c-1.2-0.1-2.3-1.1-2.5-2.4c-0.2-1.3,0.4-2.5,1.6-3.1c0.4-0.2,0.6-0.7,0.5-1.1l0,0c-0.2-0.4-0.6-0.7-1.1-0.6
			c-1.2,0.3-2.5-0.2-3.2-1.4c-0.7-1.1-0.4-2.5,0.4-3.4c0.3-0.3,0.3-0.9,0-1.2l0,0c-0.3-0.4-0.8-0.4-1.2-0.2c-1,0.7-2.4,0.7-3.4-0.2
			c-1-0.8-1.3-2.2-0.8-3.4c0.2-0.4,0-0.9-0.4-1.2l0,0c-0.4-0.2-0.9-0.1-1.2,0.3c-0.7,1-2.1,1.4-3.3,1c-1.2-0.4-2-1.6-1.9-2.9
			c0-0.5-0.3-0.9-0.7-1l0,0c-0.5-0.1-0.9,0.2-1,0.6c-0.3,1.2-1.4,2.1-2.8,2.1s-2.4-0.9-2.8-2.1C42.8,7.9,42.4,7.6,41.9,7.7L41.9,7.7
			z"/>
		<polyline class="st7" points="31.3,49.4 21.3,72.6 34.1,65 37.7,78.1 42.8,69.7 		"/>
		<path class="st5" d="M41.9,53.8l7.4,24.1c0,0.1,0.1,0.1,0.2,0l5-13.2l11.1,8c0.1,0,0.2,0,0.1-0.1l-7.2-22.3"/>
		<g>
			<path class="st8" d="M45,24.6L45,24.6l-2.9,1.4l-0.6-2.6l4-1.8h2.9v15H45V24.6z"/>
		</g>
	</g>
</g>
</svg>
