<?xml version="1.0" encoding="utf-8"?>
<!-- Generator: Adobe Illustrator 21.0.2, SVG Export Plug-In . SVG Version: 6.00 Build 0)  -->
<svg version="1.1" id="Layer_1" xmlns="http://www.w3.org/2000/svg" xmlns:xlink="http://www.w3.org/1999/xlink" x="0px" y="0px"
	 viewBox="0 0 55 55" style="enable-background:new 0 0 55 55;" xml:space="preserve">
<style type="text/css">
	.st0{fill:#EE6E73;}
	.st1{fill:none;stroke:#231F20;stroke-width:0.75;stroke-miterlimit:10;}
	.st2{fill:none;stroke:#AF4F55;stroke-width:0.75;stroke-miterlimit:10;}
	.st3{fill:none;stroke:#914A50;stroke-width:0.75;stroke-miterlimit:10;}
	.st4{fill:none;stroke:#231F20;stroke-miterlimit:10;}
	.st5{fill:none;stroke:#EE6E73;stroke-miterlimit:10;}
	.st6{fill:none;stroke:#00AEEF;stroke-linecap:round;stroke-linejoin:round;stroke-miterlimit:10;}
	.st7{fill:none;stroke:#231F20;stroke-linejoin:round;stroke-miterlimit:10;}
	.st8{fill:#FFFFFF;}
</style>
<g>
	<path class="st0" d="M19.8,33c0,1.7,1.1,3.1,2.5,3.1H32c1.4,0,2.5-1.4,2.5-3.1v-7.5c0-1.7-1.1-3.1-2.5-3.1h-9.7
		c-1.4,0-2.5,1.4-2.5,3.1V33z"/>
	<rect x="27.4" y="24.8" class="st1" width="3.1" height="11.2"/>
	<rect x="22.8" y="27.5" class="st1" width="3.1" height="8.5"/>
	<rect x="18.2" y="30.8" class="st1" width="3.1" height="5.2"/>
	<g>
		<line class="st1" x1="17.8" y1="40.7" x2="17.8" y2="43.6"/>
		<line class="st1" x1="16.4" y1="42.1" x2="19.2" y2="42.1"/>
	</g>
	<g>
		<line class="st1" x1="45.5" y1="42.3" x2="45.5" y2="45.9"/>
		<line class="st1" x1="43.7" y1="44.1" x2="47.3" y2="44.1"/>
	</g>
	<path class="st2" d="M45.7,39.4H8.6c-1.1,0-1.9-0.9-1.9-1.9V9.2c0-1.1,0.9-1.9,1.9-1.9h37.2c1.1,0,1.9,0.9,1.9,1.9v28.3
		C47.7,38.6,46.8,39.4,45.7,39.4z"/>
	<rect x="9.4" y="10.2" class="st1" width="35.4" height="27.4"/>
	<line class="st2" x1="20.5" y1="14" x2="16.9" y2="14"/>
	<line class="st2" x1="23.5" y1="16.5" x2="16.5" y2="16.5"/>
	<line class="st2" x1="14.5" y1="16.4" x2="12.4" y2="16.4"/>
	<line class="st2" x1="20.6" y1="19.5" x2="15" y2="19.5"/>
	<g>
		<path class="st2" d="M28.6,44.1h-2.9c-1,0-1.8-2.1-1.8-4.7v0h6.5v0C30.4,42.1,29.6,44.1,28.6,44.1z"/>
		<line class="st2" x1="24.1" y1="41.8" x2="30.2" y2="41.8"/>
	</g>
	<rect x="36.9" y="21.4" class="st1" width="3.1" height="14.6"/>
	<rect x="13.6" y="32.2" class="st1" width="3.1" height="3.7"/>
	<rect x="31.9" y="13.6" class="st1" width="3.1" height="22.4"/>
	<polyline class="st2" points="10.9,33.3 17.1,29.8 21.2,29.2 23.2,26.7 25.5,26.7 29.1,23.8 34.3,17.9 38.2,21.8 41.2,27.3 	"/>
	<path class="st1" d="M39.6,47.5h-25c-0.7,0-1.2-0.8-1.2-1.8v-0.8h27.4v0.8C40.9,46.7,40.3,47.5,39.6,47.5z"/>
</g>
</svg>
