<?xml version="1.0" encoding="utf-8"?>
<!-- Generator: Adobe Illustrator 21.0.2, SVG Export Plug-In . SVG Version: 6.00 Build 0)  -->
<svg version="1.1" id="Layer_1" xmlns="http://www.w3.org/2000/svg" xmlns:xlink="http://www.w3.org/1999/xlink" x="0px" y="0px"
	 viewBox="0 0 55 55" style="enable-background:new 0 0 55 55;" xml:space="preserve">
<style type="text/css">
	.st0{fill:#EE6E73;}
	.st1{fill:none;stroke:#231F20;stroke-width:0.75;stroke-miterlimit:10;}
	.st2{fill:none;stroke:#AF4F55;stroke-width:0.75;stroke-miterlimit:10;}
	.st3{fill:none;stroke:#914A50;stroke-width:0.75;stroke-miterlimit:10;}
	.st4{fill:none;stroke:#231F20;stroke-miterlimit:10;}
	.st5{fill:none;stroke:#EE6E73;stroke-miterlimit:10;}
	.st6{fill:none;stroke:#00AEEF;stroke-linecap:round;stroke-linejoin:round;stroke-miterlimit:10;}
	.st7{fill:none;stroke:#231F20;stroke-linejoin:round;stroke-miterlimit:10;}
	.st8{fill:#FFFFFF;}
</style>
<g>
	<path class="st0" d="M11.6,36.5c0,2.9,1.9,5.2,4.2,5.2h16.1c2.3,0,4.2-2.3,4.2-5.2V24c0-2.9-1.9-5.2-4.2-5.2H15.8
		c-2.3,0-4.2,2.3-4.2,5.2V36.5z"/>
	<ellipse class="st1" cx="11.6" cy="44.8" rx="1.5" ry="1.6"/>
	<g>
		<line class="st1" x1="43.7" y1="9.9" x2="43.7" y2="13.7"/>
		<line class="st1" x1="41.8" y1="11.8" x2="45.6" y2="11.8"/>
	</g>
	<g>
		<line class="st1" x1="44.2" y1="43.4" x2="44.2" y2="47.2"/>
		<line class="st1" x1="42.3" y1="45.3" x2="46.1" y2="45.3"/>
	</g>
	<g>
		<path class="st3" d="M33.3,12.4c0,0,2.4,2.1-0.7,4.1c-3,2.1,0.8,5.6,0.8,5.6"/>
		<path class="st3" d="M43.7,25.3c-1.3-0.2-2.7-0.2-3.9,0.2c-1.7,0.6-1.3,2.6-1.3,3.7"/>
		<path class="st3" d="M45.9,30.8c-1.3,0-4-0.1-4.7,0.1c-0.7,0.3-1.3,0.7-1.7,1.3c-0.4,0.6-0.4,1.4-0.4,2.1c0,0.6,0,1.2,0.3,1.8
			c0.4,0.6,1.1,1.2,1.8,1.3c0.7,0.1,1.9,0.3,2.6,0.2"/>
		<path class="st3" d="M44,19.7h-4.2c0,0-4.1-0.2-4.1,6c-1.9-0.6-4.6,0-4.7,2.9c0,2,2.3,3.8,4.2,3.4c-1,0.1-2.1,0.2-2.9,0.7
			c-0.9,0.5-1.6,1.5-1.5,2.5c0.1,0.9,0.8,1.6,1.6,1.9c0,0,0,0,0,0c0.5,0.2,0.4,0.9-0.1,1.1c-0.7,0.2-1.2,0.5-1.5,1.3
			c-0.5,1.6,0.4,3.5,1.9,4.4c1.4,0.9,4.3,0.8,5.9,0.4"/>
		<path class="st3" d="M28.2,43.9c0.8,1.2,2.2,2.4,5,2.5C41.6,46.7,52.2,29,42,16.5c-7.9-9.6-12.3-5.2-13.9-2.7"/>
	</g>
	<g>
		<path class="st1" d="M21.5,12.4c0,0-2.4,2.1,0.7,4.1c3,2.1-0.8,5.6-0.8,5.6"/>
		<path class="st1" d="M11.1,25.3c1.3-0.2,2.7-0.2,3.9,0.2c1.7,0.6,1.3,2.6,1.3,3.7"/>
		<path class="st1" d="M8.9,30.8c1.3,0,4-0.1,4.7,0.1c0.7,0.3,1.3,0.7,1.7,1.3c0.4,0.6,0.4,1.4,0.4,2.1c0,0.6,0,1.2-0.3,1.8
			c-0.4,0.6-1.1,1.2-1.8,1.3c-0.7,0.1-1.9,0.3-2.6,0.2"/>
		<path class="st1" d="M10.8,19.7H15c0,0,4.1-0.2,4.1,6c1.9-0.6,4.6,0,4.7,2.9c0,2-2.3,3.8-4.2,3.4c1,0.1,2.1,0.2,2.9,0.7
			c0.9,0.5,1.6,1.5,1.5,2.5c-0.1,0.9-0.8,1.6-1.6,1.9c0,0,0,0,0,0c-0.5,0.2-0.4,0.9,0.1,1.1c0.7,0.2,1.2,0.5,1.5,1.3
			c0.5,1.6-0.4,3.5-1.9,4.4c-1.4,0.9-4.3,0.8-5.9,0.4"/>
		<path class="st1" d="M27.5,15.2v25.9c0,0,0.1,5.1-5.8,5.3C13.2,46.7,2.6,29,12.8,16.5S27.5,15.1,27.5,15.2L27.5,15.2z"/>
	</g>
</g>
</svg>
