<?xml version="1.0" encoding="utf-8"?>
<!-- Generator: Adobe Illustrator 21.0.2, SVG Export Plug-In . SVG Version: 6.00 Build 0)  -->
<svg version="1.1" id="Layer_1" xmlns="http://www.w3.org/2000/svg" xmlns:xlink="http://www.w3.org/1999/xlink" x="0px" y="0px"
	 viewBox="0 0 90 90" style="enable-background:new 0 0 90 90;" xml:space="preserve">
<style type="text/css">
	.st0{fill:#EE6E73;}
	.st1{fill:none;stroke:#231F20;stroke-width:0.75;stroke-miterlimit:10;}
	.st2{fill:none;stroke:#AF4F55;stroke-width:0.75;stroke-miterlimit:10;}
	.st3{fill:none;stroke:#914A50;stroke-width:0.75;stroke-miterlimit:10;}
	.st4{fill:none;stroke:#231F20;stroke-miterlimit:10;}
	.st5{fill:none;stroke:#EE6E73;stroke-miterlimit:10;}
	.st6{fill:none;stroke:#00AEEF;stroke-linecap:round;stroke-linejoin:round;stroke-miterlimit:10;}
	.st7{fill:none;stroke:#231F20;stroke-linejoin:round;stroke-miterlimit:10;}
	.st8{fill:#FFFFFF;}
</style>
<g>
	<path class="st0" d="M53.1,26.4c0,3.8-3.1,6.8-6.8,6.8H45c-3.8,0-6.8-3.1-6.8-6.8v-3.9c0-3.8,3.1-6.8,6.8-6.8h1.2
		c3.8,0,6.8,3.1,6.8,6.8V26.4z"/>
	<line class="st5" x1="33" y1="47.7" x2="53.1" y2="38.9"/>
	<line class="st5" x1="32.3" y1="56.1" x2="57.1" y2="45.7"/>
	<line class="st5" x1="31.5" y1="67.1" x2="57.9" y2="55.5"/>
	<line class="st5" x1="31.5" y1="75.2" x2="58.5" y2="63.5"/>
	<circle class="st4" cx="64.7" cy="72.4" r="2"/>
	<g>
		<line class="st4" x1="20" y1="47.5" x2="20" y2="54.3"/>
		<line class="st4" x1="16.6" y1="50.9" x2="23.4" y2="50.9"/>
	</g>
	<path class="st4" d="M39.6,13.9c0,0,5.2-7.5,11.1,0.1"/>
	<g>
		<line class="st4" x1="16.8" y1="23.3" x2="18.9" y2="23.3"/>
		<line class="st4" x1="20.6" y1="23.3" x2="22.7" y2="23.3"/>
		<line class="st4" x1="24.3" y1="23.3" x2="26.4" y2="23.3"/>
		<line class="st4" x1="28.1" y1="23.3" x2="30.2" y2="23.3"/>
		<line class="st4" x1="31.8" y1="23.3" x2="33.9" y2="23.3"/>
	</g>
	<g>
		<line class="st4" x1="16.8" y1="35.3" x2="18.6" y2="34.1"/>
		<line class="st4" x1="20" y1="33.2" x2="21.8" y2="32.1"/>
		<line class="st4" x1="23.1" y1="31.2" x2="24.9" y2="30.1"/>
		<line class="st4" x1="26.3" y1="29.2" x2="28.1" y2="28.1"/>
		<line class="st4" x1="29.4" y1="27.2" x2="31.2" y2="26.1"/>
	</g>
	<g>
		<line class="st4" x1="16.8" y1="11.7" x2="18.6" y2="12.8"/>
		<line class="st4" x1="20" y1="13.7" x2="21.8" y2="14.9"/>
		<line class="st4" x1="23.1" y1="15.7" x2="24.9" y2="16.9"/>
		<line class="st4" x1="26.3" y1="17.8" x2="28.1" y2="18.9"/>
		<line class="st4" x1="29.4" y1="19.8" x2="31.2" y2="20.9"/>
	</g>
	<g>
		<line class="st4" x1="73.2" y1="23.6" x2="71.2" y2="23.6"/>
		<line class="st4" x1="69.5" y1="23.6" x2="67.4" y2="23.6"/>
		<line class="st4" x1="65.8" y1="23.6" x2="63.7" y2="23.6"/>
		<line class="st4" x1="62" y1="23.6" x2="59.9" y2="23.6"/>
		<line class="st4" x1="58.3" y1="23.6" x2="56.2" y2="23.6"/>
	</g>
	<g>
		<line class="st4" x1="73.2" y1="11.7" x2="71.5" y2="12.8"/>
		<line class="st4" x1="70.1" y1="13.7" x2="68.3" y2="14.9"/>
		<line class="st4" x1="66.9" y1="15.7" x2="65.2" y2="16.9"/>
		<line class="st4" x1="63.8" y1="17.8" x2="62" y2="18.9"/>
		<line class="st4" x1="60.6" y1="19.8" x2="58.9" y2="20.9"/>
	</g>
	<g>
		<line class="st4" x1="73.2" y1="35.3" x2="71.5" y2="34.1"/>
		<line class="st4" x1="70.1" y1="33.2" x2="68.3" y2="32.1"/>
		<line class="st4" x1="66.9" y1="31.2" x2="65.2" y2="30.1"/>
		<line class="st4" x1="63.8" y1="29.2" x2="62" y2="28.1"/>
		<line class="st4" x1="60.6" y1="27.2" x2="58.9" y2="26.1"/>
	</g>
	<path class="st4" d="M56.2,23.9c0,0-10.1,12.3-22.1-0.1C34.1,23.9,44.2,11.5,56.2,23.9z"/>
	<circle class="st5" cx="45.2" cy="23.9" r="4.2"/>
	<polyline class="st4" points="56.6,38.9 59.5,75.2 30.8,75.2 33.7,38.9 	"/>
	<polyline class="st4" points="58.8,33.9 61.7,33.9 61.7,38.9 28.6,38.9 28.6,33.9 31.6,33.9 	"/>
	<rect x="33.7" y="13.9" class="st5" width="22.9" height="20"/>
</g>
</svg>
