<?xml version="1.0" encoding="utf-8"?>
<!-- Generator: Adobe Illustrator 21.0.2, SVG Export Plug-In . SVG Version: 6.00 Build 0)  -->
<svg version="1.1" id="Layer_1" xmlns="http://www.w3.org/2000/svg" xmlns:xlink="http://www.w3.org/1999/xlink" x="0px" y="0px"
	 viewBox="0 0 90 90" style="enable-background:new 0 0 90 90;" xml:space="preserve">
<style type="text/css">
	.st0{fill:#EE6E73;}
	.st1{fill:none;stroke:#231F20;stroke-width:0.75;stroke-miterlimit:10;}
	.st2{fill:none;stroke:#AF4F55;stroke-width:0.75;stroke-miterlimit:10;}
	.st3{fill:none;stroke:#914A50;stroke-width:0.75;stroke-miterlimit:10;}
	.st4{fill:none;stroke:#231F20;stroke-miterlimit:10;}
	.st5{fill:none;stroke:#EE6E73;stroke-miterlimit:10;}
	.st6{fill:none;stroke:#00AEEF;stroke-linecap:round;stroke-linejoin:round;stroke-miterlimit:10;}
	.st7{fill:none;stroke:#231F20;stroke-linejoin:round;stroke-miterlimit:10;}
	.st8{fill:#FFFFFF;}
</style>
<text transform="matrix(1 0 0 1 -134.5 563)" style="font-family:'MyriadPro-Regular'; font-size:12px;">   </text>
<text transform="matrix(1 0 0 1 -134.5 563)" class="st0" style="font-family:'MyriadPro-Regular'; font-size:12px;">รง</text>
<g>
	<path class="st0" d="M-380.2-158.4c0,1-1,1.9-2.2,1.9h-7.3c-1.2,0-2.2-0.8-2.2-1.9v-21.1c0-1,1-1.9,2.2-1.9h7.3
		c1.2,0,2.2,0.8,2.2,1.9V-158.4z"/>
	<circle class="st1" cx="-365.8" cy="-181.7" r="1.1"/>
	<g>
		<line class="st1" x1="-400.2" y1="-160.3" x2="-400.2" y2="-156.6"/>
		<line class="st1" x1="-402.1" y1="-158.5" x2="-398.4" y2="-158.5"/>
	</g>
	<path class="st1" d="M-371-151.2h-23.8c-1.3,0-2.4-1.1-2.4-2.4v-32.1c0-1.3,1.1-2.4,2.4-2.4h23.8c1.3,0,2.4,1.1,2.4,2.4v32.1
		C-368.6-152.3-369.7-151.2-371-151.2z"/>
	<rect x="-395.6" y="-184.3" class="st1" width="25.2" height="29.6"/>
	<polyline class="st2" points="-392.5,-157.6 -390.1,-159.1 -387.9,-158.7 -385.2,-160.7 -383,-158.6 -380,-162 -377,-168.9 
		-374.4,-165.5 -372.9,-165.3 	"/>
	<line class="st1" x1="-391.9" y1="-175.9" x2="-381.8" y2="-175.9"/>
	<line class="st1" x1="-391.9" y1="-171.7" x2="-381.8" y2="-171.7"/>
	<line class="st1" x1="-391.9" y1="-167.4" x2="-381.8" y2="-167.4"/>
	<circle class="st1" cx="-383" cy="-186.2" r="0.6"/>
	<circle class="st1" cx="-383" cy="-152.9" r="1.1"/>
	<g>
		<path d="M-392.5-179.3v-3.4h0.5l1.1,1.7c0.3,0.4,0.4,0.8,0.6,1.1l0,0c0-0.5-0.1-0.9-0.1-1.4v-1.4h0.4v3.4h-0.4l-1.1-1.7
			c-0.2-0.4-0.5-0.8-0.6-1.1l0,0c0,0.4,0,0.8,0,1.4v1.4H-392.5z"/>
		<path d="M-389-180.4c0,0.6,0.4,0.8,0.8,0.8c0.3,0,0.5-0.1,0.7-0.1l0.1,0.3c-0.2,0.1-0.4,0.2-0.8,0.2c-0.7,0-1.2-0.5-1.2-1.2
			c0-0.7,0.4-1.3,1.1-1.3c0.8,0,1,0.7,1,1.1c0,0.1,0,0.2,0,0.2H-389z M-387.7-180.7c0-0.3-0.1-0.7-0.6-0.7c-0.4,0-0.6,0.4-0.7,0.7
			H-387.7z"/>
		<path d="M-386.5-181.7l0.3,1.2c0.1,0.3,0.1,0.5,0.2,0.8h0c0.1-0.2,0.1-0.5,0.2-0.8l0.4-1.2h0.4l0.4,1.2c0.1,0.3,0.2,0.5,0.2,0.8h0
			c0-0.2,0.1-0.5,0.2-0.8l0.3-1.2h0.4l-0.8,2.4h-0.4l-0.4-1.2c-0.1-0.3-0.2-0.5-0.2-0.8h0c-0.1,0.3-0.1,0.5-0.2,0.8l-0.4,1.2h-0.4
			l-0.7-2.4H-386.5z"/>
		<path d="M-383.1-179.7c0.1,0.1,0.4,0.2,0.6,0.2c0.3,0,0.5-0.2,0.5-0.4c0-0.2-0.1-0.3-0.5-0.4c-0.4-0.2-0.6-0.4-0.6-0.7
			c0-0.4,0.3-0.7,0.8-0.7c0.2,0,0.5,0.1,0.6,0.2l-0.1,0.3c-0.1-0.1-0.3-0.1-0.5-0.1c-0.3,0-0.4,0.2-0.4,0.3c0,0.2,0.1,0.3,0.5,0.4
			c0.4,0.2,0.6,0.4,0.6,0.7c0,0.4-0.3,0.7-0.9,0.7c-0.3,0-0.5-0.1-0.7-0.2L-383.1-179.7z"/>
	</g>
	<polygon class="st2" points="-374.6,-178.6 -376.2,-178.6 -374.6,-181.3 -372.9,-178.6 	"/>
	<polygon class="st2" points="-374.5,-175.1 -372.9,-175.1 -374.5,-172.3 -376.2,-175.1 	"/>
</g>
<g>
	<path class="st0" d="M-296-164.3c0,1.1-1,1.9-2.3,1.9h-7.6c-1.3,0-2.3-0.9-2.3-1.9v-21.9c0-1.1,1-1.9,2.3-1.9h7.6
		c1.3,0,2.3,0.9,2.3,1.9V-164.3z"/>
	<polyline class="st3" points="-308.1,-165.6 -306,-165.6 -304.4,-171.6 -302.6,-167.4 -299,-177 -296.4,-169.6 -295.4,-171.1 	"/>
	<circle class="st1" cx="-288.2" cy="-176.1" r="1.2"/>
	<g>
		<line class="st1" x1="-311.6" y1="-156" x2="-311.6" y2="-152.1"/>
		<line class="st1" x1="-313.5" y1="-154.1" x2="-309.6" y2="-154.1"/>
	</g>
	<line class="st1" x1="-293" y1="-174.1" x2="-293" y2="-170.8"/>
	<path class="st1" d="M-299-156.6h-9c-1.3,0-2.3-1-2.3-2.3v-24.9c0-1.3,1-2.3,2.3-2.3h12.8c1.3,0,2.3,1,2.3,2.3v5.6"/>
	<polyline class="st1" points="-297.9,-160.4 -308.1,-160.4 -308.1,-182.4 -295.3,-182.4 -295.3,-174.5 	"/>
	<line class="st1" x1="-295.3" y1="-171.2" x2="-287.3" y2="-187.5"/>
	<circle class="st1" cx="-301.9" cy="-158.5" r="1"/>
	<rect x="-304.1" y="-184.8" class="st1" width="4.7" height="0.9"/>
	<g>
		<path class="st1" d="M-310.6-162.3c0,0-2.7-0.2-2.8,1.2c-0.1,1.5,1.2,1.6,2.8,1.7"/>
		<path class="st1" d="M-310.6-165.8c0,0-2.7-0.2-2.8,1.2c-0.1,1.5,1.2,1.6,2.8,1.7"/>
		<path class="st1" d="M-310.6-169.4c0,0-2.7-0.2-2.8,1.2c-0.1,1.5,1.2,1.6,2.8,1.7"/>
		<path class="st1" d="M-310.4-172.8c0,0-3.5-2-4.2-0.4c-0.8,1.6,2.8,3,4.3,3.9"/>
	</g>
	<path class="st1" d="M-297.1-151l7.9,0v-13.7l-2.6-4.5h-6.9c0,0-2.2,3.5,1.2,3.9h3v3c0,0-4.7,3.9-2.4,11.2h-5.7v-1.2
		c0,0-3.9-1.1-4.8-4.4"/>
	<polyline class="st1" points="-290.8,-185.8 -287.2,-187.7 -287.3,-183.7 	"/>
</g>
<g>
	<path class="st0" d="M-214.9-161.5c0,2.9,1.9,5.2,4.2,5.2h16.1c2.3,0,4.2-2.3,4.2-5.2V-174c0-2.9-1.9-5.2-4.2-5.2h-16.1
		c-2.3,0-4.2,2.3-4.2,5.2V-161.5z"/>
	<ellipse class="st1" cx="-214.9" cy="-153.2" rx="1.5" ry="1.6"/>
	<g>
		<line class="st1" x1="-182.8" y1="-188.1" x2="-182.8" y2="-184.3"/>
		<line class="st1" x1="-184.7" y1="-186.2" x2="-180.9" y2="-186.2"/>
	</g>
	<g>
		<line class="st1" x1="-182.3" y1="-154.6" x2="-182.3" y2="-150.8"/>
		<line class="st1" x1="-184.2" y1="-152.7" x2="-180.4" y2="-152.7"/>
	</g>
	<g>
		<path class="st3" d="M-193.2-185.6c0,0,2.4,2.1-0.7,4.1c-3,2.1,0.8,5.6,0.8,5.6"/>
		<path class="st3" d="M-182.8-172.7c-1.3-0.2-2.7-0.2-3.9,0.2c-1.7,0.6-1.3,2.6-1.3,3.7"/>
		<path class="st3" d="M-180.6-167.2c-1.3,0-4-0.1-4.7,0.1c-0.7,0.3-1.3,0.7-1.7,1.3c-0.4,0.6-0.4,1.4-0.4,2.1c0,0.6,0,1.2,0.3,1.8
			c0.4,0.6,1.1,1.2,1.8,1.3c0.7,0.1,1.9,0.3,2.6,0.2"/>
		<path class="st3" d="M-182.5-178.3h-4.2c0,0-4.1-0.2-4.1,6c-1.9-0.6-4.6,0-4.7,2.9c0,2,2.3,3.8,4.2,3.4c-1,0.1-2.1,0.2-2.9,0.7
			c-0.9,0.5-1.6,1.5-1.5,2.5c0.1,0.9,0.8,1.6,1.6,1.9c0,0,0,0,0,0c0.5,0.2,0.4,0.9-0.1,1.1c-0.7,0.2-1.2,0.5-1.5,1.3
			c-0.5,1.6,0.4,3.5,1.9,4.4c1.4,0.9,4.3,0.8,5.9,0.4"/>
		<path class="st3" d="M-198.3-154.1c0.8,1.2,2.2,2.4,5,2.5c8.5,0.3,19.1-17.4,8.9-29.9c-7.9-9.6-12.3-5.2-13.9-2.7"/>
	</g>
	<g>
		<path class="st1" d="M-205-185.6c0,0-2.4,2.1,0.7,4.1c3,2.1-0.8,5.6-0.8,5.6"/>
		<path class="st1" d="M-215.4-172.7c1.3-0.2,2.7-0.2,3.9,0.2c1.7,0.6,1.3,2.6,1.3,3.7"/>
		<path class="st1" d="M-217.6-167.2c1.3,0,4-0.1,4.7,0.1c0.7,0.3,1.3,0.7,1.7,1.3c0.4,0.6,0.4,1.4,0.4,2.1c0,0.6,0,1.2-0.3,1.8
			c-0.4,0.6-1.1,1.2-1.8,1.3c-0.7,0.1-1.9,0.3-2.6,0.2"/>
		<path class="st1" d="M-215.7-178.3h4.2c0,0,4.1-0.2,4.1,6c1.9-0.6,4.6,0,4.7,2.9c0,2-2.3,3.8-4.2,3.4c1,0.1,2.1,0.2,2.9,0.7
			c0.9,0.5,1.6,1.5,1.5,2.5c-0.1,0.9-0.8,1.6-1.6,1.9c0,0,0,0,0,0c-0.5,0.2-0.4,0.9,0.1,1.1c0.7,0.2,1.2,0.5,1.5,1.3
			c0.5,1.6-0.4,3.5-1.9,4.4c-1.4,0.9-4.3,0.8-5.9,0.4"/>
		<path class="st1" d="M-199-182.8v25.9c0,0,0.1,5.1-5.8,5.3c-8.5,0.3-19.1-17.4-8.9-29.9S-199-182.9-199-182.8L-199-182.8z"/>
	</g>
</g>
<g>
	<path class="st0" d="M-93.3-170c0,1.3-1.1,2.4-2.4,2.4h-7.5c-1.3,0-2.4-1.1-2.4-2.4v-10c0-1.3,1.1-2.4,2.4-2.4h7.5
		c1.3,0,2.4,1.1,2.4,2.4V-170z"/>
	<circle class="st1" cx="-95" cy="-154.9" r="1.2"/>
	<g>
		<line class="st1" x1="-89.3" y1="-172.7" x2="-89.3" y2="-168.8"/>
		<line class="st1" x1="-91.2" y1="-170.8" x2="-87.3" y2="-170.8"/>
	</g>
	<g>
		<line class="st1" x1="-113.2" y1="-189.1" x2="-113.2" y2="-185.2"/>
		<line class="st1" x1="-115.2" y1="-187.2" x2="-111.3" y2="-187.2"/>
	</g>
	<g>
		<path class="st1" d="M-112.5-170.4l-2.1-2.1c-0.8-0.8-0.8-2.1,0-2.9l0.4-0.4c0.8-0.8,2.1-0.8,2.9,0l2.1,2.1l1.5-0.5v-3
			c0-1.1,0.9-2,2-2h0.6c1.1,0,2,0.9,2,2v3l1.4,0.7l2.1-2.1c0.8-0.8,2.1-0.8,2.9,0l0.4,0.4c0.8,0.8,0.8,2.1,0,2.9l-2.1,2.1l0.5,1.5h3
			c1.1,0,2,0.9,2,2v0.6c0,1.1-0.9,2-2,2h-3l-0.7,1.4l2.1,2.1c0.8,0.8,0.8,2.1,0,2.9l-0.4,0.4c-0.8,0.8-2.1,0.8-2.9,0l-2.1-2.1
			l-1.5,0.5v3c0,1.1-0.9,2-2,2h-0.6c-1.1,0-2-0.9-2-2v-3l-1.4-0.7l-2.1,2.1c-0.8,0.8-2.1,0.8-2.9,0l-0.4-0.4c-0.8-0.8-0.8-2.1,0-2.9
			l2.1-2.1l-0.5-1.5h-3c-1.1,0-2-0.9-2-2v-0.6c0-1.1,0.9-2,2-2h3L-112.5-170.4z"/>
		<path class="st1" d="M-102.8-166.5c0,1.6-1.3,3-3,3l0,0c-1.6,0-3-1.3-3-3l0,0c0-1.6,1.3-3,3-3l0,0
			C-104.1-169.5-102.8-168.2-102.8-166.5L-102.8-166.5z"/>
	</g>
	<g>
		<path class="st3" d="M-97.5-185.6l-1.4-1.4c-0.5-0.5-0.5-1.3,0-1.8l0.3-0.3c0.5-0.5,1.3-0.5,1.8,0l1.4,1.4l0.9-0.3v-2
			c0-0.7,0.6-1.3,1.3-1.3h0.4c0.7,0,1.3,0.6,1.3,1.3v2l0.9,0.5l1.4-1.4c0.5-0.5,1.3-0.5,1.8,0l0.3,0.3c0.5,0.5,0.5,1.3,0,1.8
			l-1.4,1.4l0.3,0.9h2c0.7,0,1.3,0.6,1.3,1.3v0.4c0,0.7-0.6,1.3-1.3,1.3h-2l-0.5,0.9l1.4,1.4c0.5,0.5,0.5,1.3,0,1.8l-0.3,0.3
			c-0.5,0.5-1.3,0.5-1.8,0l-1.4-1.4l-0.9,0.3v2c0,0.7-0.6,1.3-1.3,1.3h-0.4c-0.7,0-1.3-0.6-1.3-1.3v-2l-0.9-0.5l-1.4,1.4
			c-0.5,0.5-1.3,0.5-1.8,0l-0.3-0.3c-0.5-0.5-0.5-1.3,0-1.8l1.4-1.4l-0.3-0.9h-2c-0.7,0-1.3-0.6-1.3-1.3v-0.4c0-0.7,0.6-1.3,1.3-1.3
			h2L-97.5-185.6z"/>
		<path class="st3" d="M-91.2-183.2c0,1.1-0.9,1.9-1.9,1.9l0,0c-1.1,0-1.9-0.9-1.9-1.9l0,0c0-1.1,0.9-1.9,1.9-1.9l0,0
			C-92.1-185.1-91.2-184.2-91.2-183.2L-91.2-183.2z"/>
	</g>
</g>
<g>
	<path class="st0" d="M-25-155.6c0,2,1.3,3.7,2.9,3.7h11.3c1.6,0,2.9-1.6,2.9-3.7v-8.8c0-2-1.3-3.7-2.9-3.7H-22
		c-1.6,0-2.9,1.6-2.9,3.7V-155.6z"/>
	<path class="st3" d="M6-188.7c0,0,2,35.7-35.3,35.6"/>
	<g>
		<g>
			<path class="st3" d="M-13.7-188.7c0,0,0,1.1-0.1,2.9"/>
			<path class="st3" d="M-14.4-180.3c-1,6-3.5,13.5-9.3,16.5"/>
			<path class="st3" d="M-26.3-162.8c-0.9,0.2-1.9,0.3-2.9,0.3"/>
		</g>
	</g>
	<path class="st3" d="M-1-188.7c0,0,0.2,32.9-27.9,32.9"/>
	<circle class="st1" cx="-24.2" cy="-158.8" r="1.1"/>
	<g>
		<line class="st1" x1="-22.1" y1="-182.8" x2="-22.1" y2="-179.3"/>
		<line class="st1" x1="-23.8" y1="-181" x2="-20.3" y2="-181"/>
	</g>
	<g>
		<line class="st1" x1="3.7" y1="-158.3" x2="3.7" y2="-154.8"/>
		<line class="st1" x1="1.9" y1="-156.6" x2="5.4" y2="-156.6"/>
	</g>
	<polyline class="st1" points="-29.2,-186.6 -29.2,-152.3 4.7,-152.3 	"/>
	<polygon points="-30.1,-186.6 -28.4,-186.6 -29.2,-189.1 	"/>
	<polygon points="4.4,-153 4.4,-151.6 6.5,-152.3 	"/>
	<path class="st1" d="M-29.2-181c0,0,0.9,27.5,35.4,19.9"/>
</g>
<rect x="-0.5" y="467" class="st0" width="99" height="38"/>
<g>
	<g>
		<path class="st0" d="M58.6,75.6c0,1.6-2.3,2.9-5.1,2.9h-7.9c-2.8,0-5.1-1.3-5.1-2.9V61.2c0-1.6,2.3-2.9,5.1-2.9h7.9
			c2.8,0,5.1,1.3,5.1,2.9V75.6z"/>
		<path class="st4" d="M30.5,34.5c0.1,0.8-0.8,1.4-1.5,1l-3-1.4c-2.9,1.2-6.2,1.1-9.1-0.6c-4.9-2.9-6.6-9.2-3.8-14.1
			c2.9-4.9,9.2-6.6,14.1-3.8s6.6,9.2,3.8,14.1c-0.2,0.4-0.5,0.8-0.8,1.2L30.5,34.5z"/>
		<rect x="48.6" y="65.2" class="st5" width="2.6" height="12.6"/>
		<circle class="st4" cx="28.8" cy="48.3" r="2"/>
		<g>
			<line class="st4" x1="73.4" y1="51.3" x2="73.4" y2="58.1"/>
			<line class="st4" x1="70" y1="54.7" x2="76.8" y2="54.7"/>
		</g>
		<g>
			<line class="st4" x1="73.6" y1="22.7" x2="73.6" y2="29.4"/>
			<line class="st4" x1="70.2" y1="26" x2="77" y2="26"/>
		</g>
		<path class="st4" d="M40.3,20.3l-5.3,17.5c-0.5,1.8,0.8,3.6,2.7,3.6h1.8v13.8H60c0,0,5.2-4.3,4.7-14.4v-5.8"/>
		<line class="st4" x1="39" y1="46.2" x2="44" y2="46.2"/>
		<path class="st4" d="M65.1,33.6c2,0,3.4,2,3.4,4.4s-1.6,4.4-3.7,4.4"/>
		<path class="st4" d="M52.8,32.6c-2.4-2.4-6.2-2.4-8.6,0"/>
		<polygon class="st4" points="49.4,62.8 45.9,70.3 37.3,61 37.3,57 		"/>
		<polygon class="st4" points="50.3,62.8 53.8,70.3 62.4,61 62.4,57 		"/>
		<line class="st4" x1="43.2" y1="55.4" x2="43.2" y2="59.5"/>
		<line class="st4" x1="58.6" y1="55.3" x2="58.6" y2="59"/>
		<line class="st4" x1="36.8" y1="56.2" x2="39.5" y2="52.4"/>
		<line class="st4" x1="61.2" y1="53.7" x2="62.8" y2="56.3"/>
		<path class="st5" d="M40.8,21.4c0,0,1.5,2.8,6.1,2.6c4.6-0.3,5.9-3.7,9.5-0.1s4.1,11.3,4.1,11.3h4.5l0.9-4.6
			c0.7-3.7,0.8-7.5,0.1-11.1c-0.9-5-6.3-11.1-12.3-11.7C40.4,6.2,32.3,10.5,40.8,21.4z"/>
		<line class="st4" x1="45.5" y1="34.9" x2="49.1" y2="34.9"/>
		<path class="st4" d="M62.2,61.2h8.5c4,0,7.4,3.2,7.5,7.3c0,0.1,0,0.1,0,0.2v9.1"/>
		<path class="st4" d="M37.4,61.6h-8.5c-4,0-7.4,2.9-7.5,6.5c0,0.1,0,0.1,0,0.2v9.5"/>
		<path class="st4" d="M15.9,20.3c-0.3,0.3-0.4,0.8-0.3,1.2c0.2,1,0.9,2.7,2.4,4.1c2.3,2.1,5,4.7,7.6,4.5l1.6-1.8
			c0,0,0.4-0.8-0.2-1.1c-0.5-0.3-1.7-1.1-2.2-1.3c-0.2-0.1-0.4-0.2-0.7-0.2c-0.1,0-0.3,0-0.4,0.1c-0.3,0.2-1.1,0.8-1.1,0.8l-3.4-3.1
			l0.4-0.9c0.2-0.4,0.2-0.7,0.2-1.1l0,0c0,0-1.3-2.2-1.8-2.4C17.6,18.9,15.9,20.3,15.9,20.3z"/>
		<rect x="61" y="71.6" class="st4" width="11" height="5.4"/>
		<line class="st4" x1="62" y1="74" x2="63.4" y2="74"/>
		<line class="st4" x1="68.8" y1="74" x2="70.2" y2="74"/>
		<line class="st4" x1="64" y1="74" x2="67.4" y2="74"/>
	</g>
</g>
<g>
	<g>
		<circle class="st0" cx="-552.9" cy="-510.1" r="15.5"/>
		<g>
			<line class="st4" x1="-582.3" y1="-516.7" x2="-582.3" y2="-504.5"/>
			<line class="st4" x1="-588.4" y1="-510.6" x2="-576.2" y2="-510.6"/>
		</g>
		<g>
			<line class="st4" x1="-523.8" y1="-440.6" x2="-523.8" y2="-430.5"/>
			<line class="st4" x1="-528.8" y1="-435.5" x2="-518.7" y2="-435.5"/>
		</g>
		<g>
			<line class="st4" x1="-591.7" y1="-443.9" x2="-591.7" y2="-433.9"/>
			<line class="st4" x1="-596.7" y1="-438.9" x2="-586.6" y2="-438.9"/>
		</g>
		<line class="st4" x1="-591" y1="-510.8" x2="-594.7" y2="-510.8"/>
		<line class="st4" x1="-597.7" y1="-510.8" x2="-601.4" y2="-510.8"/>
		<line class="st4" x1="-604.4" y1="-510.8" x2="-608.1" y2="-510.8"/>
		<g>
			<g>
				<path d="M-556.5-506.2c0.7,0.4,1.9,0.9,3,0.9c1.7,0,2.4-0.8,2.4-1.9c0-1.1-0.6-1.7-2.3-2.3c-2.3-0.8-3.3-2-3.3-3.6
					c0-2,1.6-3.7,4.3-3.7c1.3,0,2.4,0.4,3.1,0.8l-0.6,1.7c-0.5-0.3-1.4-0.7-2.6-0.7c-1.3,0-2.1,0.8-2.1,1.7c0,1,0.8,1.5,2.4,2.1
					c2.2,0.8,3.3,1.9,3.3,3.8c0,2.2-1.7,3.8-4.7,3.8c-1.4,0-2.6-0.4-3.5-0.9L-556.5-506.2z"/>
			</g>
			<line class="st4" x1="-553" y1="-517.9" x2="-553" y2="-502.3"/>
		</g>
		<circle class="st4" cx="-553" cy="-510.3" r="10.2"/>
		<g>
			<line class="st4" x1="-595.3" y1="-469.1" x2="-585.4" y2="-459.5"/>
			<path class="st4" d="M-582.1-449.2c-1.7,1.7-4.5,1.5-6.3-0.3l0,0c-1.8-1.8-2-4.7-0.3-6.3l5.8-5.8c1.7-1.7,4.5-1.5,6.3,0.3l0,0
				c1.8,1.8,2,4.7,0.3,6.3L-582.1-449.2z"/>
			<path class="st4" d="M-575.4-442.6c-1.7,1.7-4.5,1.5-6.3-0.3l0,0c-1.8-1.8-2-4.7-0.3-6.3l5.8-5.8c1.7-1.7,4.5-1.5,6.3,0.3l0,0
				c1.8,1.8,2,4.7,0.3,6.3L-575.4-442.6z"/>
			<path class="st4" d="M-568.7-435.8c-1.7,1.7-4.5,1.5-6.3-0.3l0,0c-1.8-1.8-2-4.7-0.3-6.3l5.8-5.8c1.7-1.7,4.5-1.5,6.3,0.3l0,0
				c1.8,1.8,2,4.7,0.3,6.3L-568.7-435.8z"/>
			<path class="st4" d="M-561.9-429.1c-1.7,1.7-4.5,1.5-6.3-0.3l0,0c-1.8-1.8-2-4.7-0.3-6.3l5.8-5.8c1.7-1.7,4.5-1.5,6.3,0.3l0,0
				c1.8,1.8,2,4.7,0.3,6.3L-561.9-429.1z"/>
			<path class="st4" d="M-537.1-448.8c1.8,1.8,4.7,1.8,6.4,0l0,0c1.8-1.8,1.8-4.7,0-6.4l-17.8-17.7c-2.2-2.2-5.8-2.3-8.1-0.1
				c0,0-0.1,0.1-0.1,0.1l-7.6,7.6c-2.2,2.2-5.7,2.3-7.8,0.2l0,0c-2.1-2.1-2-5.6,0.2-7.8l16.2-14.6c0,0,2.7-3.1,5.2-1
				c1.3,1.1,2.3,1.9,3,2.5c1,0.9,2.2,1.4,3.6,1.4c1.1,0,1.6-0.5,2.7-1.8"/>
			<path class="st4" d="M-537.1-448.8c1.8,1.8,1.8,4.7,0,6.4l0,0c-1.8,1.8-4.7,1.8-6.4,0"/>
			<path class="st4" d="M-543.6-442.3c1.8,1.8,1.8,4.7,0,6.4l0,0c-1.8,1.8-4.7,1.8-6.4,0"/>
			<path class="st4" d="M-576.7-487.1c0,0,2,2.2,3.5,1.8c1.6-0.4,4.9-6.8,8.5-4c3.7,2.7,5.6,4.7,5.6,4.7"/>
			<line class="st4" x1="-532.9" y1="-458.2" x2="-523.4" y2="-467.8"/>
			<path class="st4" d="M-550.2-435.7c1.8,1.8,1.8,4.7,0,6.4l0,0c-0.7,0.7-1.7,0.9-2.8,0.8c-2,0-3.8-0.9-5.2-2.3l-0.8-0.8"/>
			<path class="st4" d="M-516.3-474.1c0,1.7-1.4,3.1-3.1,3.1l0,0c-1.7,0-3.1-1.4-3.1-3.1l0,0c0-1.7,1.4-3.1,3.1-3.1l0,0
				C-517.7-477.2-516.3-475.8-516.3-474.1L-516.3-474.1z"/>
			<path class="st4" d="M-606.2-478l19-18.6c2-2,5.3-2,7.3,0l3.1,3c2,1.9,2,5.1,0,7l-19.1,18.6c-2,2-5.3,1.9-7.3-0.1l-2.9-3
				C-608.2-473-608.2-476.1-606.2-478z"/>
			<path class="st6" d="M-530.8-495.7l18.6,19c2,2,2,5.3,0,7.3l-3,3.1c-1.9,2-5.1,2-7,0l-18.6-19.1c-2-2-1.9-5.3,0.1-7.3l3-2.9
				C-535.8-497.7-532.7-497.7-530.8-495.7z"/>
		</g>
		<path class="st4" d="M-559.4-492.1c-1,0.7-2.4,0-2.4-1.2l-0.4-4.9c-3.6-2.8-6-7.2-6-12.1c0-8.4,6.8-15.3,15.3-15.3
			c8.4,0,15.3,6.8,15.3,15.3s-6.8,15.3-15.3,15.3c-0.7,0-1.5-0.1-2.2-0.2L-559.4-492.1z"/>
	</g>
	<g>
		<text transform="matrix(1 0 0 1 -596.8438 -401.7939)" style="font-family:'MyriadPro-Regular'; font-size:21.6966px;">Partners</text>
	</g>
</g>
<g>
	<g>
		<path class="st0" d="M215.8,30.7c0,6-5.2,10.9-11.5,10.9h-2.1c-6.4,0-11.5-4.9-11.5-10.9v-2.9c0-6,5.2-10.9,11.5-10.9h2.1
			c6.4,0,11.5,4.9,11.5,10.9V30.7z"/>
		<circle class="st4" cx="228.4" cy="53" r="2.3"/>
		<g>
			<line class="st4" x1="177.3" y1="12.5" x2="177.3" y2="20.1"/>
			<line class="st4" x1="173.5" y1="16.3" x2="181.1" y2="16.3"/>
		</g>
		<circle class="st4" cx="203.2" cy="29.2" r="12.5"/>
		<path class="st4" d="M199.4,7.7c-0.5,0.1-0.8,0.5-0.7,1c0.1,1.2-0.7,2.4-1.9,2.9c-1.2,0.4-2.6,0-3.3-1c-0.3-0.4-0.8-0.5-1.2-0.3
			l0,0c-0.4,0.2-0.6,0.7-0.4,1.2c0.5,1.1,0.2,2.5-0.8,3.4c-1,0.8-2.4,0.9-3.4,0.2c-0.4-0.3-0.9-0.2-1.2,0.2l0,0
			c-0.3,0.4-0.3,0.9,0,1.2c0.9,0.9,1.1,2.3,0.4,3.4c-0.7,1.1-2,1.7-3.2,1.4c-0.4-0.1-0.9,0.1-1.1,0.6l0,0c-0.2,0.4,0,0.9,0.5,1.1
			c1.1,0.5,1.8,1.8,1.6,3.1c-0.2,1.3-1.3,2.2-2.5,2.4c-0.5,0-0.8,0.4-0.8,0.9v0c0,0.5,0.3,0.8,0.8,0.9c1.2,0.1,2.3,1.1,2.5,2.4
			c0.2,1.3-0.4,2.5-1.6,3.1c-0.4,0.2-0.6,0.7-0.5,1.1l0,0c0.2,0.4,0.6,0.7,1.1,0.6c1.2-0.3,2.5,0.2,3.2,1.4c0.7,1.1,0.4,2.5-0.4,3.4
			c-0.3,0.3-0.3,0.9,0,1.2l0,0c0.3,0.4,0.8,0.4,1.2,0.2c1-0.7,2.4-0.7,3.4,0.2c1,0.8,1.3,2.2,0.8,3.4c-0.2,0.4,0,0.9,0.4,1.2l0,0
			c0.4,0.2,0.9,0.1,1.2-0.3c0.7-1,2.1-1.4,3.3-1c1.2,0.4,2,1.6,1.9,2.9c0,0.5,0.3,0.9,0.7,1l0,0c0.5,0.1,0.9-0.2,1-0.6
			c0.3-1.2,1.4-2.1,2.8-2.1c1.3,0,2.4,0.9,2.8,2.1c0.1,0.4,0.6,0.7,1,0.6l0,0c0.5-0.1,0.8-0.5,0.7-1c-0.1-1.2,0.7-2.4,1.9-2.9
			c1.2-0.4,2.6,0,3.3,1c0.3,0.4,0.8,0.5,1.2,0.3l0,0c0.4-0.2,0.6-0.7,0.4-1.2c-0.5-1.1-0.2-2.5,0.8-3.4c1-0.8,2.4-0.9,3.4-0.2
			c0.4,0.3,0.9,0.2,1.2-0.2l0,0c0.3-0.4,0.3-0.9,0-1.2c-0.9-0.9-1.1-2.3-0.4-3.4c0.7-1.1,2-1.6,3.2-1.4c0.4,0.1,0.9-0.1,1.1-0.6l0,0
			c0.2-0.4,0-0.9-0.5-1.1c-1.1-0.5-1.8-1.8-1.6-3.1c0.2-1.3,1.3-2.2,2.5-2.4c0.5,0,0.8-0.4,0.8-0.9v0c0-0.5-0.3-0.8-0.8-0.9
			c-1.2-0.1-2.3-1.1-2.5-2.4c-0.2-1.3,0.4-2.5,1.6-3.1c0.4-0.2,0.6-0.7,0.5-1.1l0,0c-0.2-0.4-0.6-0.7-1.1-0.6
			c-1.2,0.3-2.5-0.2-3.2-1.4c-0.7-1.1-0.4-2.5,0.4-3.4c0.3-0.3,0.3-0.9,0-1.2l0,0c-0.3-0.4-0.8-0.4-1.2-0.2c-1,0.7-2.4,0.7-3.4-0.2
			c-1-0.8-1.3-2.2-0.8-3.4c0.2-0.4,0-0.9-0.4-1.2l0,0c-0.4-0.2-0.9-0.1-1.2,0.3c-0.7,1-2.1,1.4-3.3,1c-1.2-0.4-2-1.6-1.9-2.9
			c0-0.5-0.3-0.9-0.7-1l0,0c-0.5-0.1-0.9,0.2-1,0.6c-0.3,1.2-1.4,2.1-2.8,2.1c-1.3,0-2.4-0.9-2.8-2.1C200.3,7.9,199.9,7.6,199.4,7.7
			L199.4,7.7z"/>
		<polyline class="st7" points="188.8,49.4 178.8,72.6 191.6,65 195.2,78.1 200.3,69.7 		"/>
		<path class="st5" d="M199.4,53.8l7.4,24.1c0,0.1,0.1,0.1,0.2,0l5-13.2l11.1,8c0.1,0,0.2,0,0.1-0.1l-7.2-22.3"/>
		<g>
			<path class="st8" d="M202.5,24.6L202.5,24.6l-2.9,1.4l-0.6-2.6l4-1.8h2.9v15h-3.4V24.6z"/>
		</g>
	</g>
</g>
<g>
	<path class="st0" d="M368.6,26.4c0,3.8-3.1,6.8-6.8,6.8h-1.2c-3.8,0-6.8-3.1-6.8-6.8v-3.9c0-3.8,3.1-6.8,6.8-6.8h1.2
		c3.8,0,6.8,3.1,6.8,6.8V26.4z"/>
	<line class="st5" x1="348.5" y1="47.7" x2="368.6" y2="38.9"/>
	<line class="st5" x1="347.8" y1="56.1" x2="372.6" y2="45.7"/>
	<line class="st5" x1="347" y1="67.1" x2="373.4" y2="55.5"/>
	<line class="st5" x1="347" y1="75.2" x2="374" y2="63.5"/>
	<circle class="st4" cx="380.2" cy="72.4" r="2"/>
	<g>
		<line class="st4" x1="335.5" y1="47.5" x2="335.5" y2="54.3"/>
		<line class="st4" x1="332.1" y1="50.9" x2="338.9" y2="50.9"/>
	</g>
	<path class="st4" d="M355.1,13.9c0,0,5.2-7.5,11.1,0.1"/>
	<g>
		<line class="st4" x1="332.3" y1="23.3" x2="334.4" y2="23.3"/>
		<line class="st4" x1="336.1" y1="23.3" x2="338.2" y2="23.3"/>
		<line class="st4" x1="339.8" y1="23.3" x2="341.9" y2="23.3"/>
		<line class="st4" x1="343.6" y1="23.3" x2="345.7" y2="23.3"/>
		<line class="st4" x1="347.3" y1="23.3" x2="349.4" y2="23.3"/>
	</g>
	<g>
		<line class="st4" x1="332.3" y1="35.3" x2="334.1" y2="34.1"/>
		<line class="st4" x1="335.5" y1="33.2" x2="337.3" y2="32.1"/>
		<line class="st4" x1="338.6" y1="31.2" x2="340.4" y2="30.1"/>
		<line class="st4" x1="341.8" y1="29.2" x2="343.6" y2="28.1"/>
		<line class="st4" x1="344.9" y1="27.2" x2="346.7" y2="26.1"/>
	</g>
	<g>
		<line class="st4" x1="332.3" y1="11.7" x2="334.1" y2="12.8"/>
		<line class="st4" x1="335.5" y1="13.7" x2="337.3" y2="14.9"/>
		<line class="st4" x1="338.6" y1="15.7" x2="340.4" y2="16.9"/>
		<line class="st4" x1="341.8" y1="17.8" x2="343.6" y2="18.9"/>
		<line class="st4" x1="344.9" y1="19.8" x2="346.7" y2="20.9"/>
	</g>
	<g>
		<line class="st4" x1="388.7" y1="23.6" x2="386.7" y2="23.6"/>
		<line class="st4" x1="385" y1="23.6" x2="382.9" y2="23.6"/>
		<line class="st4" x1="381.3" y1="23.6" x2="379.2" y2="23.6"/>
		<line class="st4" x1="377.5" y1="23.6" x2="375.4" y2="23.6"/>
		<line class="st4" x1="373.8" y1="23.6" x2="371.7" y2="23.6"/>
	</g>
	<g>
		<line class="st4" x1="388.7" y1="11.7" x2="387" y2="12.8"/>
		<line class="st4" x1="385.6" y1="13.7" x2="383.8" y2="14.9"/>
		<line class="st4" x1="382.4" y1="15.7" x2="380.7" y2="16.9"/>
		<line class="st4" x1="379.3" y1="17.8" x2="377.5" y2="18.9"/>
		<line class="st4" x1="376.1" y1="19.8" x2="374.4" y2="20.9"/>
	</g>
	<g>
		<line class="st4" x1="388.7" y1="35.3" x2="387" y2="34.1"/>
		<line class="st4" x1="385.6" y1="33.2" x2="383.8" y2="32.1"/>
		<line class="st4" x1="382.4" y1="31.2" x2="380.7" y2="30.1"/>
		<line class="st4" x1="379.3" y1="29.2" x2="377.5" y2="28.1"/>
		<line class="st4" x1="376.1" y1="27.2" x2="374.4" y2="26.1"/>
	</g>
	<path class="st4" d="M371.7,23.9c0,0-10.1,12.3-22.1-0.1C349.6,23.9,359.7,11.5,371.7,23.9z"/>
	<circle class="st5" cx="360.7" cy="23.9" r="4.2"/>
	<polyline class="st4" points="372.1,38.9 375,75.2 346.3,75.2 349.2,38.9 	"/>
	<polyline class="st4" points="374.3,33.9 377.2,33.9 377.2,38.9 344.1,38.9 344.1,33.9 347.1,33.9 	"/>
	<rect x="349.2" y="13.9" class="st5" width="22.9" height="20"/>
</g>
<g>
	<path class="st0" d="M-466.7-164.5c0,1.7,1.1,3.1,2.5,3.1h9.7c1.4,0,2.5-1.4,2.5-3.1v-7.5c0-1.7-1.1-3.1-2.5-3.1h-9.7
		c-1.4,0-2.5,1.4-2.5,3.1V-164.5z"/>
	<rect x="-459.1" y="-172.7" class="st1" width="3.1" height="11.2"/>
	<rect x="-463.7" y="-170" class="st1" width="3.1" height="8.5"/>
	<rect x="-468.3" y="-166.7" class="st1" width="3.1" height="5.2"/>
	<g>
		<line class="st1" x1="-468.7" y1="-156.8" x2="-468.7" y2="-153.9"/>
		<line class="st1" x1="-470.1" y1="-155.4" x2="-467.3" y2="-155.4"/>
	</g>
	<g>
		<line class="st1" x1="-441" y1="-155.2" x2="-441" y2="-151.6"/>
		<line class="st1" x1="-442.8" y1="-153.4" x2="-439.2" y2="-153.4"/>
	</g>
	<path class="st2" d="M-440.8-158.1h-37.2c-1.1,0-1.9-0.9-1.9-1.9v-28.3c0-1.1,0.9-1.9,1.9-1.9h37.2c1.1,0,1.9,0.9,1.9,1.9v28.3
		C-438.8-158.9-439.7-158.1-440.8-158.1z"/>
	<rect x="-477.1" y="-187.3" class="st1" width="35.4" height="27.4"/>
	<line class="st2" x1="-466" y1="-183.5" x2="-469.6" y2="-183.5"/>
	<line class="st2" x1="-463" y1="-181" x2="-470" y2="-181"/>
	<line class="st2" x1="-472" y1="-181.1" x2="-474.1" y2="-181.1"/>
	<line class="st2" x1="-465.9" y1="-178" x2="-471.5" y2="-178"/>
	<g>
		<path class="st2" d="M-457.9-153.4h-2.9c-1,0-1.8-2.1-1.8-4.7v0h6.5v0C-456.1-155.4-456.9-153.4-457.9-153.4z"/>
		<line class="st2" x1="-462.4" y1="-155.7" x2="-456.3" y2="-155.7"/>
	</g>
	<rect x="-449.6" y="-176.1" class="st1" width="3.1" height="14.6"/>
	<rect x="-472.9" y="-165.3" class="st1" width="3.1" height="3.7"/>
	<rect x="-454.6" y="-183.9" class="st1" width="3.1" height="22.4"/>
	<polyline class="st2" points="-475.6,-164.2 -469.4,-167.7 -465.3,-168.3 -463.3,-170.8 -461,-170.8 -457.4,-173.7 -452.2,-179.6 
		-448.3,-175.7 -445.3,-170.2 	"/>
	<path class="st1" d="M-446.9-150h-25c-0.7,0-1.2-0.8-1.2-1.8v-0.8h27.4v0.8C-445.6-150.8-446.2-150-446.9-150z"/>
</g>
</svg>
