<?xml version="1.0" encoding="utf-8"?>
<!-- Generator: Adobe Illustrator 21.0.2, SVG Export Plug-In . SVG Version: 6.00 Build 0)  -->
<svg version="1.1" id="Layer_1" xmlns="http://www.w3.org/2000/svg" xmlns:xlink="http://www.w3.org/1999/xlink" x="0px" y="0px"
	 viewBox="0 0 55 55" style="enable-background:new 0 0 55 55;" xml:space="preserve">
<style type="text/css">
	.st0{fill:#EE6E73;}
	.st1{fill:none;stroke:#231F20;stroke-width:0.75;stroke-miterlimit:10;}
	.st2{fill:none;stroke:#AF4F55;stroke-width:0.75;stroke-miterlimit:10;}
	.st3{fill:none;stroke:#914A50;stroke-width:0.75;stroke-miterlimit:10;}
	.st4{fill:none;stroke:#231F20;stroke-miterlimit:10;}
	.st5{fill:none;stroke:#EE6E73;stroke-miterlimit:10;}
	.st6{fill:none;stroke:#00AEEF;stroke-linecap:round;stroke-linejoin:round;stroke-miterlimit:10;}
	.st7{fill:none;stroke:#231F20;stroke-linejoin:round;stroke-miterlimit:10;}
	.st8{fill:#FFFFFF;}
</style>
<g>
	<path class="st0" d="M34.2,28c0,1.3-1.1,2.4-2.4,2.4h-7.5c-1.3,0-2.4-1.1-2.4-2.4V18c0-1.3,1.1-2.4,2.4-2.4h7.5
		c1.3,0,2.4,1.1,2.4,2.4V28z"/>
	<circle class="st1" cx="32.5" cy="43.1" r="1.2"/>
	<g>
		<line class="st1" x1="38.2" y1="25.3" x2="38.2" y2="29.2"/>
		<line class="st1" x1="36.3" y1="27.2" x2="40.2" y2="27.2"/>
	</g>
	<g>
		<line class="st1" x1="14.3" y1="8.9" x2="14.3" y2="12.8"/>
		<line class="st1" x1="12.3" y1="10.8" x2="16.2" y2="10.8"/>
	</g>
	<g>
		<path class="st1" d="M15,27.6l-2.1-2.1c-0.8-0.8-0.8-2.1,0-2.9l0.4-0.4c0.8-0.8,2.1-0.8,2.9,0l2.1,2.1l1.5-0.5v-3c0-1.1,0.9-2,2-2
			h0.6c1.1,0,2,0.9,2,2v3l1.4,0.7l2.1-2.1c0.8-0.8,2.1-0.8,2.9,0l0.4,0.4c0.8,0.8,0.8,2.1,0,2.9l-2.1,2.1l0.5,1.5h3c1.1,0,2,0.9,2,2
			v0.6c0,1.1-0.9,2-2,2h-3l-0.7,1.4l2.1,2.1c0.8,0.8,0.8,2.1,0,2.9l-0.4,0.4c-0.8,0.8-2.1,0.8-2.9,0l-2.1-2.1L23.9,39v3
			c0,1.1-0.9,2-2,2h-0.6c-1.1,0-2-0.9-2-2v-3l-1.4-0.7l-2.1,2.1c-0.8,0.8-2.1,0.8-2.9,0L12.5,40c-0.8-0.8-0.8-2.1,0-2.9l2.1-2.1
			l-0.5-1.5h-3c-1.1,0-2-0.9-2-2V31c0-1.1,0.9-2,2-2h3L15,27.6z"/>
		<path class="st1" d="M24.7,31.5c0,1.6-1.3,3-3,3l0,0c-1.6,0-3-1.3-3-3l0,0c0-1.6,1.3-3,3-3l0,0C23.4,28.5,24.7,29.8,24.7,31.5
			L24.7,31.5z"/>
	</g>
	<g>
		<path class="st3" d="M30,12.4L28.6,11c-0.5-0.5-0.5-1.3,0-1.8l0.3-0.3c0.5-0.5,1.3-0.5,1.8,0l1.4,1.4L33,10V8
			c0-0.7,0.6-1.3,1.3-1.3h0.4C35.4,6.7,36,7.3,36,8v2l0.9,0.5l1.4-1.4c0.5-0.5,1.3-0.5,1.8,0l0.3,0.3c0.5,0.5,0.5,1.3,0,1.8
			l-1.4,1.4l0.3,0.9h2c0.7,0,1.3,0.6,1.3,1.3v0.4c0,0.7-0.6,1.3-1.3,1.3h-2l-0.5,0.9l1.4,1.4c0.5,0.5,0.5,1.3,0,1.8l-0.3,0.3
			c-0.5,0.5-1.3,0.5-1.8,0l-1.4-1.4l-0.9,0.3v2c0,0.7-0.6,1.3-1.3,1.3h-0.4c-0.7,0-1.3-0.6-1.3-1.3v-2l-0.9-0.5l-1.4,1.4
			c-0.5,0.5-1.3,0.5-1.8,0l-0.3-0.3c-0.5-0.5-0.5-1.3,0-1.8l1.4-1.4l-0.3-0.9h-2c-0.7,0-1.3-0.6-1.3-1.3v-0.4c0-0.7,0.6-1.3,1.3-1.3
			h2L30,12.4z"/>
		<path class="st3" d="M36.3,14.8c0,1.1-0.9,1.9-1.9,1.9l0,0c-1.1,0-1.9-0.9-1.9-1.9l0,0c0-1.1,0.9-1.9,1.9-1.9l0,0
			C35.4,12.9,36.3,13.8,36.3,14.8L36.3,14.8z"/>
	</g>
</g>
</svg>
