<?xml version="1.0" encoding="utf-8"?>
<!-- Generator: Adobe Illustrator 21.0.2, SVG Export Plug-In . SVG Version: 6.00 Build 0)  -->
<svg version="1.1" id="Layer_1" xmlns="http://www.w3.org/2000/svg" xmlns:xlink="http://www.w3.org/1999/xlink" x="0px" y="0px"
	 viewBox="0 0 55 55" style="enable-background:new 0 0 55 55;" xml:space="preserve">
<style type="text/css">
	.st0{fill:#EE6E73;}
	.st1{fill:none;stroke:#231F20;stroke-width:0.75;stroke-miterlimit:10;}
	.st2{fill:none;stroke:#AF4F55;stroke-width:0.75;stroke-miterlimit:10;}
	.st3{fill:none;stroke:#914A50;stroke-width:0.75;stroke-miterlimit:10;}
	.st4{fill:none;stroke:#231F20;stroke-miterlimit:10;}
	.st5{fill:none;stroke:#EE6E73;stroke-miterlimit:10;}
	.st6{fill:none;stroke:#00AEEF;stroke-linecap:round;stroke-linejoin:round;stroke-miterlimit:10;}
	.st7{fill:none;stroke:#231F20;stroke-linejoin:round;stroke-miterlimit:10;}
	.st8{fill:#FFFFFF;}
</style>
<g>
	<path class="st0" d="M30.3,39.6c0,1-1,1.9-2.2,1.9h-7.3c-1.2,0-2.2-0.8-2.2-1.9V18.5c0-1,1-1.9,2.2-1.9h7.3c1.2,0,2.2,0.8,2.2,1.9
		V39.6z"/>
	<circle class="st1" cx="44.7" cy="16.3" r="1.1"/>
	<g>
		<line class="st1" x1="10.3" y1="37.7" x2="10.3" y2="41.4"/>
		<line class="st1" x1="8.4" y1="39.5" x2="12.1" y2="39.5"/>
	</g>
	<path class="st1" d="M39.5,46.8H15.6c-1.3,0-2.4-1.1-2.4-2.4V12.3c0-1.3,1.1-2.4,2.4-2.4h23.8c1.3,0,2.4,1.1,2.4,2.4v32.1
		C41.9,45.7,40.8,46.8,39.5,46.8z"/>
	<rect x="14.9" y="13.7" class="st1" width="25.2" height="29.6"/>
	<polyline class="st2" points="18,40.4 20.4,38.9 22.6,39.3 25.3,37.3 27.5,39.4 30.5,36 33.5,29.1 36.1,32.5 37.6,32.7 	"/>
	<line class="st1" x1="18.6" y1="22.1" x2="28.7" y2="22.1"/>
	<line class="st1" x1="18.6" y1="26.3" x2="28.7" y2="26.3"/>
	<line class="st1" x1="18.6" y1="30.6" x2="28.7" y2="30.6"/>
	<circle class="st1" cx="27.5" cy="11.8" r="0.6"/>
	<circle class="st1" cx="27.5" cy="45.1" r="1.1"/>
	<g>
		<path d="M18,18.7v-3.4h0.5l1.1,1.7c0.3,0.4,0.4,0.8,0.6,1.1l0,0c0-0.5-0.1-0.9-0.1-1.4v-1.4h0.4v3.4h-0.4L19,17
			c-0.2-0.4-0.5-0.8-0.6-1.1l0,0c0,0.4,0,0.8,0,1.4v1.4H18z"/>
		<path d="M21.5,17.6c0,0.6,0.4,0.8,0.8,0.8c0.3,0,0.5-0.1,0.7-0.1l0.1,0.3c-0.2,0.1-0.4,0.2-0.8,0.2c-0.7,0-1.2-0.5-1.2-1.2
			c0-0.7,0.4-1.3,1.1-1.3c0.8,0,1,0.7,1,1.1c0,0.1,0,0.2,0,0.2H21.5z M22.8,17.3c0-0.3-0.1-0.7-0.6-0.7c-0.4,0-0.6,0.4-0.7,0.7H22.8
			z"/>
		<path d="M24,16.3l0.3,1.2c0.1,0.3,0.1,0.5,0.2,0.8h0c0.1-0.2,0.1-0.5,0.2-0.8l0.4-1.2h0.4l0.4,1.2c0.1,0.3,0.2,0.5,0.2,0.8h0
			c0-0.2,0.1-0.5,0.2-0.8l0.3-1.2H27l-0.8,2.4h-0.4l-0.4-1.2c-0.1-0.3-0.2-0.5-0.2-0.8h0c-0.1,0.3-0.1,0.5-0.2,0.8l-0.4,1.2h-0.4
			l-0.7-2.4H24z"/>
		<path d="M27.4,18.3c0.1,0.1,0.4,0.2,0.6,0.2c0.3,0,0.5-0.2,0.5-0.4c0-0.2-0.1-0.3-0.5-0.4c-0.4-0.2-0.6-0.4-0.6-0.7
			c0-0.4,0.3-0.7,0.8-0.7c0.2,0,0.5,0.1,0.6,0.2l-0.1,0.3c-0.1-0.1-0.3-0.1-0.5-0.1c-0.3,0-0.4,0.2-0.4,0.3c0,0.2,0.1,0.3,0.5,0.4
			c0.4,0.2,0.6,0.4,0.6,0.7c0,0.4-0.3,0.7-0.9,0.7c-0.3,0-0.5-0.1-0.7-0.2L27.4,18.3z"/>
	</g>
	<polygon class="st2" points="35.9,19.4 34.3,19.4 35.9,16.7 37.6,19.4 	"/>
	<polygon class="st2" points="36,22.9 37.6,22.9 36,25.7 34.3,22.9 	"/>
</g>
</svg>
