<?xml version="1.0" encoding="utf-8"?>
<!-- Generator: Adobe Illustrator 21.0.2, SVG Export Plug-In . SVG Version: 6.00 Build 0)  -->
<svg version="1.1" id="Layer_1" xmlns="http://www.w3.org/2000/svg" xmlns:xlink="http://www.w3.org/1999/xlink" x="0px" y="0px"
	 viewBox="0 0 55 55" style="enable-background:new 0 0 55 55;" xml:space="preserve">
<style type="text/css">
	.st0{fill:#EE6E73;}
	.st1{fill:none;stroke:#231F20;stroke-width:0.75;stroke-miterlimit:10;}
	.st2{fill:none;stroke:#AF4F55;stroke-width:0.75;stroke-miterlimit:10;}
	.st3{fill:none;stroke:#914A50;stroke-width:0.75;stroke-miterlimit:10;}
	.st4{fill:none;stroke:#231F20;stroke-miterlimit:10;}
	.st5{fill:none;stroke:#EE6E73;stroke-miterlimit:10;}
	.st6{fill:none;stroke:#00AEEF;stroke-linecap:round;stroke-linejoin:round;stroke-miterlimit:10;}
	.st7{fill:none;stroke:#231F20;stroke-linejoin:round;stroke-miterlimit:10;}
	.st8{fill:#FFFFFF;}
</style>
<g>
	<path class="st0" d="M14.5,42.4c0,2,1.3,3.7,2.9,3.7h11.3c1.6,0,2.9-1.6,2.9-3.7v-8.8c0-2-1.3-3.7-2.9-3.7H17.5
		c-1.6,0-2.9,1.6-2.9,3.7V42.4z"/>
	<path class="st3" d="M45.5,9.3c0,0,2,35.7-35.3,35.6"/>
	<g>
		<g>
			<path class="st3" d="M25.8,9.3c0,0,0,1.1-0.1,2.9"/>
			<path class="st3" d="M25.1,17.7c-1,6-3.5,13.5-9.3,16.5"/>
			<path class="st3" d="M13.2,35.2c-0.9,0.2-1.9,0.3-2.9,0.3"/>
		</g>
	</g>
	<path class="st3" d="M38.5,9.3c0,0,0.2,32.9-27.9,32.9"/>
	<circle class="st1" cx="15.3" cy="39.2" r="1.1"/>
	<g>
		<line class="st1" x1="17.4" y1="15.2" x2="17.4" y2="18.7"/>
		<line class="st1" x1="15.7" y1="17" x2="19.2" y2="17"/>
	</g>
	<g>
		<line class="st1" x1="43.2" y1="39.7" x2="43.2" y2="43.2"/>
		<line class="st1" x1="41.4" y1="41.4" x2="44.9" y2="41.4"/>
	</g>
	<polyline class="st1" points="10.3,11.4 10.3,45.7 44.2,45.7 	"/>
	<polygon points="9.4,11.4 11.1,11.4 10.3,8.9 	"/>
	<polygon points="43.9,45 43.9,46.4 46,45.7 	"/>
	<path class="st1" d="M10.3,17c0,0,0.9,27.5,35.4,19.9"/>
</g>
</svg>
